<?xml version="1.0" encoding="utf-8"?>
<!-- Generator: Adobe Illustrator 19.0.1, SVG Export Plug-In . SVG Version: 6.00 Build 0)  -->
<!DOCTYPE svg PUBLIC "-//W3C//DTD SVG 1.1//EN" "http://www.w3.org/Graphics/SVG/1.1/DTD/svg11.dtd">
<svg version="1.1" id="Layer_1" xmlns="http://www.w3.org/2000/svg" xmlns:xlink="http://www.w3.org/1999/xlink" x="0px" y="0px"
	 viewBox="0 0 416.2 420" style="enable-background:new 0 0 416.2 420;" xml:space="preserve">
<style type="text/css">
	.st0{fill:#FFFFFF;}
	.st1{filter:url(#Adobe_OpacityMaskFilter);}
	.st2{filter:url(#Adobe_OpacityMaskFilter_1_);}
	.st3{mask:url(#SVGID_1_);fill:url(#SVGID_2_);}
	.st4{display:none;}
	.st5{display:inline;filter:url(#Adobe_OpacityMaskFilter_2_);}
	.st6{filter:url(#Adobe_OpacityMaskFilter_3_);}
	.st7{mask:url(#SVGID_3_);fill:url(#SVGID_4_);}
	.st8{display:inline;fill:url(#SVGID_5_);}
	.st9{display:inline;fill:#FFFAFA;}
	.st10{display:inline;fill:#F37778;}
	.st11{display:inline;fill:#272010;}
	.st12{display:inline;fill:#FFFFFF;}
	.st13{fill:#4A271E;}
</style>
<rect x="0" class="st0" width="416.2" height="420"/>
<defs>
	<filter id="Adobe_OpacityMaskFilter" filterUnits="userSpaceOnUse" x="60.9" y="314.2" width="308.6" height="67.8">
		<feFlood  style="flood-color:white;flood-opacity:1" result="back"/>
		<feBlend  in="SourceGraphic" in2="back" mode="normal"/>
	</filter>
</defs>
<mask maskUnits="userSpaceOnUse" x="60.9" y="314.2" width="308.6" height="67.8" id="SVGID_1_">
	<g class="st1">
		<defs>
			<filter id="Adobe_OpacityMaskFilter_1_" filterUnits="userSpaceOnUse" x="60.9" y="314.2" width="308.6" height="67.8">
				<feFlood  style="flood-color:white;flood-opacity:1" result="back"/>
				<feBlend  in="SourceGraphic" in2="back" mode="normal"/>
			</filter>
		</defs>
		<mask maskUnits="userSpaceOnUse" x="60.9" y="314.2" width="308.6" height="67.8" id="SVGID_1_">
			<g class="st2">
			</g>
		</mask>
		
			<radialGradient id="SVGID_2_" cx="215.2319" cy="8.8992" r="154.3459" gradientTransform="matrix(1 0 0 0.2197 0 346.1293)" gradientUnits="userSpaceOnUse">
			<stop  offset="0" style="stop-color:#FFFFFF"/>
			<stop  offset="1" style="stop-color:#000000"/>
		</radialGradient>
		<path class="st3" d="M369.6,348.1c0,18.7-69.1,33.9-154.3,33.9c-85.2,0-154.3-15.2-154.3-33.9c0-18.7,69.1-33.9,154.3-33.9
			C300.5,314.2,369.6,329.3,369.6,348.1z"/>
	</g>
</mask>
<g class="st4">
	<defs>
		<filter id="Adobe_OpacityMaskFilter_2_" filterUnits="userSpaceOnUse" x="60.9" y="314.2" width="308.6" height="67.8">
			<feFlood  style="flood-color:white;flood-opacity:1" result="back"/>
			<feBlend  in="SourceGraphic" in2="back" mode="normal"/>
		</filter>
	</defs>
	<mask maskUnits="userSpaceOnUse" x="60.9" y="314.2" width="308.6" height="67.8" id="SVGID_3_" style="display:inline;">
		<g style="filter:url(#Adobe_OpacityMaskFilter_2_);">
			<defs>
				<filter id="Adobe_OpacityMaskFilter_3_" filterUnits="userSpaceOnUse" x="60.9" y="314.2" width="308.6" height="67.8">
					<feFlood  style="flood-color:white;flood-opacity:1" result="back"/>
					<feBlend  in="SourceGraphic" in2="back" mode="normal"/>
				</filter>
			</defs>
			<mask maskUnits="userSpaceOnUse" x="60.9" y="314.2" width="308.6" height="67.8" id="SVGID_3_">
				<g class="st6">
				</g>
			</mask>
			
				<radialGradient id="SVGID_4_" cx="215.2319" cy="8.8992" r="154.3459" gradientTransform="matrix(1 0 0 0.2197 0 346.1293)" gradientUnits="userSpaceOnUse">
				<stop  offset="0" style="stop-color:#FFFFFF"/>
				<stop  offset="9.731854e-02" style="stop-color:#F9F9F9"/>
				<stop  offset="0.2213" style="stop-color:#EAEAEA"/>
				<stop  offset="0.3599" style="stop-color:#CFCFCF"/>
				<stop  offset="0.5091" style="stop-color:#ABABAB"/>
				<stop  offset="0.6668" style="stop-color:#7C7C7C"/>
				<stop  offset="0.8317" style="stop-color:#434343"/>
				<stop  offset="1" style="stop-color:#000000"/>
			</radialGradient>
			<path class="st7" d="M369.6,348.1c0,18.7-69.1,33.9-154.3,33.9c-85.2,0-154.3-15.2-154.3-33.9c0-18.7,69.1-33.9,154.3-33.9
				C300.5,314.2,369.6,329.3,369.6,348.1z"/>
		</g>
	</mask>
	
		<radialGradient id="SVGID_5_" cx="215.2319" cy="8.8992" r="154.3459" gradientTransform="matrix(1 0 0 0.2197 0 346.1293)" gradientUnits="userSpaceOnUse">
		<stop  offset="0" style="stop-color:#5F6772"/>
		<stop  offset="0.1372" style="stop-color:#636B76"/>
		<stop  offset="0.3119" style="stop-color:#6E7680"/>
		<stop  offset="0.5071" style="stop-color:#838A94"/>
		<stop  offset="0.7172" style="stop-color:#A2ABB2"/>
		<stop  offset="0.9368" style="stop-color:#D2DDE2"/>
		<stop  offset="1" style="stop-color:#E5F4F8"/>
	</radialGradient>
	<path class="st8" d="M369.6,348.1c0,18.7-69.1,33.9-154.3,33.9c-85.2,0-154.3-15.2-154.3-33.9c0-18.7,69.1-33.9,154.3-33.9
		C300.5,314.2,369.6,329.3,369.6,348.1z"/>
</g>
<g class="st4">
	<path class="st9" d="M349.8,25.8c1.4-0.3,3.2,0.1,4.6,0.2c1.9,0,3.8,0.1,5.7-0.1c0-0.1,0-0.3,0-0.4c0-0.2,0-0.3-0.1-0.5
		c0-0.1,0-0.1,0-0.2c-2.1,0.6-4.4,0.5-6.6,0.1c-0.2,0-0.4-0.4-0.2-0.5c1.8-1.2,3.9-1.9,6-2.3c-0.1-0.4-0.1-0.9,0-1.3
		c-1.7,0.1-3.4,0.1-5-0.1c-1.4-0.1-3.3,0.1-4.6-0.5c-0.1,0.4-0.1,0.7,0,1.1c0,0.2,0.1,0.3,0,0.5c1.9-0.1,3.9,0,5.8-0.2
		c0.3,0,0.4,0.4,0.1,0.5c-0.2,0.1-0.5,0.1-0.7,0.2c-1,0.6-2,1-3.1,1.4c-0.5,0.2-1.4,0.8-2.1,0.8C349.8,24.9,349.9,25.4,349.8,25.8z"
		/>
	<path class="st9" d="M362.1,3.2C362.1,3.2,362.1,3.2,362.1,3.2c-0.2-0.3-0.5-0.7-0.7-0.3c-0.2,0.3-0.2,0.8-0.1,1.1
		c0.1,0.2,0.6,0.8,0.8,0.5c0.1-0.1,0.2-0.4,0.2-0.6C362.2,3.7,362.1,3.4,362.1,3.2z"/>
	<path class="st9" d="M359.5,3.2C359.5,3.2,359.5,3.2,359.5,3.2c-3.2,0.7-6.5,0.2-9.7,0c0.2,0.8,0.2,1.3,1.3,1.2
		c0.9-0.1,1.9-0.1,2.8-0.1c1.1,0,2.3,0.1,3.4,0.2C358.5,4.6,360.2,5.1,359.5,3.2z"/>
	<path class="st9" d="M355.4,6.7c-1.1-0.1-2.5-0.1-3.5,0.5c-1.9,1.1-2,3-0.7,4.5c0.2-0.2,0.5-0.3,0.7-0.5c-3.4-4.2,8-4.4,5.9,0.2
		c0.5,0,0.9,0.1,1.4,0.2C359.8,8.9,358.3,6.9,355.4,6.7z"/>
	<path class="st9" d="M354.9,18.4c2.1-0.3,3.6-1.4,3.5-3.6c0,0,0-0.1,0-0.1c-1.5-1.8-8-2.4-7.8,0.8C350.6,17.7,353,18.6,354.9,18.4z
		 M351.8,15.8c0-2.4,4.1-2,5.2-0.6c0,0,0.1,0,0.1,0c0,0,0,0,0,0c0.1,0.1,0.1,0.2,0.1,0.3C356.6,17.7,351.8,18.6,351.8,15.8z"/>
	<path class="st10" d="M356.4,15.9c0.1-0.2,0.1-0.3,0.2-0.5c-0.6-0.7-1.6-0.9-2.4-0.8c-0.7,0.1-2.3,0.4-1.8,1.5c0.5,1,1.9,1,2.8,0.6
		C355.7,16.6,356.2,16.3,356.4,15.9z"/>
	<path class="st10" d="M367.5,8.3c0.3-1.7,0.7-3.9,0.3-5.7c-0.2-0.9-0.5-1.8-0.6-2.7h-22.3c0,1.3,0.1,2.6,0,4
		c-0.2,1.6-0.4,3.3-0.8,4.9c-0.5,2.2-0.9,4.4-0.9,6.6c0,2,0.4,4,0.8,6c0.3,1.6,0.6,3.2,0.6,4.9c0.1,2.1-0.2,4.2-0.1,6.3
		c0.2,3.9,1.3,7.9,2.4,11.7c2.2-1.6,2.9-4.5,4.4-6.6c1.5-2,4.1-3.2,4.7-5.8c0.1-0.3,0.4-0.4,0.6-0.2c2,2,3.3,4.6,5.2,6.6
		c1.8,1.9,3.8,3.7,5.6,5.6c-0.3-7.8-2.1-15.5-1.8-23.3C365.9,16.4,366.9,12.4,367.5,8.3z M344.7,16.8c0,0.1-0.2,0.1-0.2,0
		c-0.3-0.4-0.2-1-0.2-1.5c0-0.6,0-1.2,0.2-1.8c0.1-0.2,0.4-0.1,0.4,0.1c-0.1,0.6-0.1,1.2-0.1,1.8C344.8,15.9,345,16.5,344.7,16.8z
		 M349.5,2.6c3.4,0.3,6.8,0.7,10.2,0.2c0.1,0,0.1,0,0.2,0c0.1,0,0.2,0,0.2,0.2c0.2,0.6,0.2,1.2,0.1,1.9c0,0.2-0.2,0.2-0.3,0.2
		c-3.3,0.1-6.7-0.5-10,0c-0.1,0-0.3-0.1-0.3-0.2c0-0.7-0.1-1.2-0.4-1.9C349.1,2.8,349.2,2.6,349.5,2.6z M357.4,11.9
		c-0.2,0-0.3-0.3-0.2-0.5c1.2-1.9-1-2.8-2.6-2.9c-1.8,0-3.4,0.7-1.9,2.5c0.1,0.1,0.1,0.3-0.1,0.4c-0.4,0.1-0.8,0.3-1.1,0.5
		c0,0.1-0.2,0.2-0.3,0.1c-1.5-0.8-1.8-2.6-0.9-4c1-1.6,2.6-2,4.4-2c3.3,0,6.8,2.3,5,5.9c0,0,0,0,0,0c-0.1,0.1-0.2,0.2-0.4,0.2
		C358.6,12,358,11.9,357.4,11.9z M350.1,16.2c-1-4.2,6.8-4.6,8.6-1.8c0.1,0,0.2,0,0.2,0.2C360.5,19.2,351.1,20.9,350.1,16.2z
		 M345.9,1.4c0-0.2,0.3-0.3,0.3-0.1c0.1,0.5,0.2,1.1,0.1,1.7c-0.1,0.3-0.5,0.3-0.5-0.1C345.9,2.4,346,1.9,345.9,1.4z M345.8,6.7
		c0.1-0.4,0.2-0.9,0.1-1.3c0-0.3,0-0.2,0.1-0.5c0,0,0,0,0,0c0.4,0.3,0.4,1.1,0.3,1.6c-0.1,0.5-0.1,1.2-0.3,1.7
		c-0.1,0.1-0.2,0.1-0.3,0C345.5,7.8,345.7,7.2,345.8,6.7z M345.1,11.1c0.1-0.4,0.2-0.8,0.3-1.1c0.1-0.2,0.4-0.2,0.4,0.1
		c-0.1,0.4-0.1,0.9-0.3,1.3c-0.1,0.3-0.1,0.6-0.4,0.6c-0.1,0-0.1,0-0.2-0.1C344.8,11.6,345,11.4,345.1,11.1z M345.2,22.3
		c0.2-0.9,0.1-1.6-0.1-2.5c-0.1-0.5-0.3-0.9,0-1.4c0-0.1,0.1-0.1,0.2,0c0.3,0.6,0.5,1.4,0.6,2c0.1,0.7,0.3,1.4,0,2
		C345.6,22.7,345.1,22.6,345.2,22.3z M345.4,24.4c0-0.1,0.1-0.1,0.1-0.2c0,0,0,0,0,0c0,0.1,0.1,0.1,0.2,0.2c0.1,0.2,0.1,0.4,0.1,0.6
		c0.1,0.5,0.2,1,0.3,1.5c0,0.3-0.5,0.4-0.5,0.1c-0.1-0.5-0.1-1-0.2-1.5C345.5,24.8,345.4,24.6,345.4,24.4z M345.7,30.9
		c-0.3-0.8-0.1-1.7,0-2.5c0-0.2,0.4-0.2,0.4,0.1c-0.1,0.8-0.1,1.5,0.1,2.3C346.3,31,345.8,31.1,345.7,30.9z M346.6,35.9
		c0,0.1-0.1,0.1-0.2,0.1c-0.3-0.3-0.3-0.8-0.4-1.2c-0.1-0.5-0.1-1-0.1-1.5c0-0.2,0.3-0.3,0.3,0c0,0.5,0.1,1,0.2,1.5
		C346.5,35.1,346.7,35.5,346.6,35.9z M348.8,39.1c-0.1,0.1-0.2,0.3-0.2,0.5c-0.1,0.2-0.2,0.5-0.4,0.7c-0.1,0.2-0.4,0.1-0.5,0
		c-0.5-1-0.5-2.1-0.9-3.2c-0.1-0.2,0.3-0.4,0.4-0.1c0.4,0.8,0.5,1.7,0.8,2.5c0,0,0-0.1,0-0.1c0-0.1,0.1-0.2,0.2-0.2
		c0.1-0.1,0.2-0.2,0.2-0.3c0.2-0.2,0.4-0.6,0.7-0.6c0,0,0.1,0,0.1,0.1C349.3,38.7,349,38.9,348.8,39.1z M351.3,35.5
		c-0.3,0.6-0.5,1.3-0.8,1.9c-0.2,0.3-0.6,0.1-0.5-0.2c0.2-0.7,0.6-1.3,1-1.9C351,35.1,351.4,35.3,351.3,35.5z M354,32.4
		c-0.3,0.2-0.5,0.5-0.8,0.7c-0.2,0.2-0.4,0.5-0.6,0.7c-0.2,0.1-0.5-0.1-0.4-0.3c0.2-0.3,0.4-0.5,0.7-0.8c0.3-0.3,0.6-0.5,0.9-0.7
		C354,32,354.2,32.3,354,32.4z M355.6,30.4c-0.1,0.3-0.3,0.8-0.6,0.9c-0.1,0-0.2,0-0.2-0.1c-0.1-0.4,0.3-0.7,0.4-1.1
		c0.2-0.4,0.4-0.8,0.5-1.2c0.1-0.3,0.4-0.1,0.4,0.2C356,29.6,355.8,30,355.6,30.4z M355.5,26.6c-1.7,0-4.2,0.2-5.8-0.6
		c-0.2,0.1-0.4,0.1-0.4-0.2c0-0.2,0-0.5,0-0.7c0-0.3,0-0.6-0.1-0.8c0-0.1,0.1-0.2,0.2-0.2c0.2-0.3,0.7-0.4,1-0.5
		c0.7-0.3,1.3-0.5,2-0.8c0.4-0.2,0.8-0.3,1.2-0.5c-1.4,0.1-2.9-0.1-4.2-0.2c-0.1,0-0.1,0-0.1-0.1c0,0,0,0,0,0
		c-0.2-0.2-0.1-0.7-0.1-1c0-0.4,0.1-0.8,0.2-1.2c0.1-0.1,0.2-0.1,0.3-0.1c1.2-0.4,3,0.1,4.2,0.2c1.9,0.2,3.9,0.3,5.8,0.2
		c0.2,0,0.3,0.2,0.2,0.3c0.1,0.5,0,1.1,0.1,1.6c0,0.1-0.1,0.3-0.2,0.3c-1.8,0.5-3.8,1-5.4,2c1.9,0.3,3.9,0.3,5.7-0.2
		c0.1,0,0.3,0,0.3,0.1c0,0,0,0,0,0c0.1,0,0.1,0.1,0.1,0.2c0.1,0.3,0.1,0.7,0.2,1c0,0.2,0.1,0.4,0.1,0.7c0,0.2,0,0.4-0.2,0.4
		C358.9,26.6,357.2,26.6,355.5,26.6z M358.6,31.3c-0.3,0.1-0.7-0.3-0.9-0.6c-0.1-0.2-0.3-0.3-0.4-0.5c0-0.1-0.1-0.2-0.1-0.2
		c0-0.1,0-0.2,0-0.3c0,0,0,0,0,0c0.1,0.2,0.2,0.1,0.3,0.2c0,0.1,0.1,0.1,0.2,0.2c0.1,0.1,0.3,0.3,0.4,0.4c0.2,0.2,0.7,0.3,0.7,0.6
		C358.7,31.2,358.6,31.3,358.6,31.3z M360.9,34.1c-0.2-0.2-0.4-0.5-0.5-0.7c-0.1-0.2-0.4-0.4-0.3-0.6c0,0,0.1-0.1,0.1-0.1
		c0.2,0,0.4,0.3,0.6,0.5c0.2,0.2,0.4,0.4,0.6,0.7C361.5,34,361.1,34.3,360.9,34.1z M360.7,4.2c-0.2-0.6-0.1-1.3,0.4-1.7
		c0.5-0.5,1,0.1,1.3,0.5c0,0,0.1,0,0.1,0c0.3,0.2,0.3,0.8,0.3,1.1c0,0.3-0.2,0.7-0.4,0.8C361.7,5.4,360.9,4.7,360.7,4.2z
		 M362.7,36.6c-0.3-0.2-0.4-0.5-0.5-0.8c-0.1-0.2-0.3-0.5-0.2-0.8c0-0.1,0.1-0.1,0.2-0.1c0.1,0.1,0.1,0.2,0.2,0.3
		c0.1,0.2,0.2,0.3,0.3,0.4c0.2,0.2,0.4,0.4,0.5,0.6C363.1,36.6,362.9,36.7,362.7,36.6z M365,1.4c0.5,0.4,0.8,0.8,1,1.4
		c0.1,0.4,0.2,1,0,1.4c-0.1,0.1-0.2,0.1-0.3,0c-0.2-0.4-0.2-0.9-0.3-1.3c-0.1-0.5-0.3-0.9-0.7-1.3C364.6,1.5,364.8,1.2,365,1.4z
		 M365.1,12.8c-0.1,0-0.1,0-0.2,0c-0.2-0.3,0-0.8,0-1.1c0-0.3-0.1-0.7,0.2-1c0,0,0,0,0,0c0.3,0.3,0.2,0.8,0.2,1.1
		C365.3,12.1,365.4,12.6,365.1,12.8z M364.5,33c0-0.4-0.1-1,0.2-1.4c0,0,0.1,0,0.1,0c0.2,0.4,0.1,1,0.2,1.5c0,0.4,0.2,1-0.2,1.3
		c-0.1,0.1-0.2,0-0.2,0C364.4,34,364.5,33.4,364.5,33z M364.1,28.3c0-0.4-0.1-0.9,0-1.4c0-0.2,0.3-0.2,0.4,0c0.1,0.5,0.1,1,0.2,1.5
		c0,0.2,0.3,1-0.1,1C364.1,29.5,364.1,28.6,364.1,28.3z M364.1,16.6c0.1-0.3,0.3-1,0.7-1.1c0,0,0.1,0,0.1,0.1c0,0.2,0,0.3-0.1,0.5
		c-0.1,0.3-0.2,0.5-0.2,0.8c0,0.4,0,0.9-0.2,1.3c-0.1,0.1-0.2,0.1-0.3,0C363.8,17.6,363.9,17,364.1,16.6z M364,21.1
		c0-0.1,0.2-0.1,0.2,0c0.2,0.8,0.1,1.6,0.1,2.4c0,0.5,0.1,1-0.1,1.5c0,0.1-0.2,0.1-0.2,0c-0.3-0.7-0.2-1.5-0.2-2.3
		C363.9,22.3,363.8,21.6,364,21.1z M366.3,40.4c0.1,0.2-0.2,0.4-0.3,0.3c-0.8-0.7-1.4-1.5-2-2.4c-0.2-0.3,0.3-0.5,0.5-0.2
		c0.3,0.6,0.7,1.1,1.1,1.6c0-0.2,0-0.4,0-0.6c0-0.1,0.1-0.1,0.2-0.1c0.1,0.1,0.2,0.2,0.2,0.4C366.1,39.7,366.2,40,366.3,40.4z
		 M365.8,37.9c0,0.1-0.1,0.1-0.2,0.1c-0.4-0.2-0.4-0.7-0.4-1.1c-0.1-0.5-0.2-0.9-0.1-1.3c0-0.1,0.1-0.1,0.1,0
		c0.2,0.3,0.3,0.7,0.4,1.1C365.7,37.1,366,37.6,365.8,37.9z M365.5,8.7c-0.1,0.1-0.2,0-0.2-0.1c-0.1-0.4,0.1-0.9,0.2-1.3
		c0.1-0.4,0-0.9,0.3-1.3c0,0,0.1-0.1,0.1,0c0.2,0.3,0.1,0.9,0.1,1.3C365.9,7.8,365.8,8.4,365.5,8.7z"/>
	<path class="st11" d="M368.4,3.9c0-1.4-0.5-2.6-0.8-3.9h-0.4c0.1,0.9,0.4,1.8,0.6,2.7c0.4,1.7-0.1,3.9-0.3,5.7
		c-0.6,4.1-1.6,8.1-1.8,12.2c-0.3,7.8,1.5,15.5,1.8,23.3c-1.8-2-3.7-3.7-5.6-5.6c-1.9-2-3.3-4.6-5.2-6.6c-0.2-0.2-0.6-0.1-0.6,0.2
		c-0.6,2.6-3.2,3.8-4.7,5.8c-1.5,2.1-2.2,5-4.4,6.6c-1.1-3.8-2.2-7.7-2.4-11.7c-0.1-2.1,0.1-4.2,0.1-6.3c0-1.6-0.3-3.3-0.6-4.9
		c-0.4-2-0.7-3.9-0.8-6c0-2.2,0.4-4.4,0.9-6.6c0.3-1.6,0.6-3.2,0.8-4.9c0.2-1.4,0-2.7,0-4h-0.8c0,1.1,0.1,2.2,0,3.3
		c-0.2,2.3-0.6,4.5-1.1,6.7c-0.8,3.7-0.7,7.2,0,11c0.4,2,0.7,4,0.8,6.1c0.1,2.1-0.1,4.2,0,6.3c0.2,3.9,1.5,7.9,2.5,11.7
		c0.1,0.2,0.3,0.4,0.6,0.2c2.3-1.4,3.4-4.2,4.7-6.5c1.3-2.3,4.1-3.5,5-6c1.7,1.9,3.1,4.2,4.8,6.1c2,2.2,4.3,4.1,6.2,6.3
		c0.2,0.2,0.6,0.1,0.6-0.2c-0.2-7.9-2.2-15.6-2-23.6c0.1-4.1,0.9-8.1,1.6-12.2C368.2,7.4,368.4,5.7,368.4,3.9z"/>
	<path class="st12" d="M364.8,1.6c0.4,0.3,0.6,0.8,0.7,1.3c0.1,0.4,0,0.9,0.3,1.3c0.1,0.1,0.2,0.1,0.3,0c0.2-0.4,0.1-1,0-1.4
		c-0.2-0.6-0.5-1.1-1-1.4C364.8,1.2,364.6,1.5,364.8,1.6z"/>
	<path class="st12" d="M365.4,7.3c-0.1,0.4-0.3,0.9-0.2,1.3c0,0.1,0.1,0.1,0.2,0.1c0.4-0.3,0.4-0.9,0.4-1.3c0-0.4,0.1-1-0.1-1.3
		c0,0-0.1,0-0.1,0C365.5,6.4,365.5,6.9,365.4,7.3z"/>
	<path class="st12" d="M365.1,12.8c0.3-0.2,0.2-0.7,0.2-1c0-0.3,0.1-0.8-0.2-1.1c0,0,0,0,0,0c-0.3,0.2-0.2,0.6-0.2,1
		c0,0.3-0.2,0.8,0,1.1C364.9,12.8,365,12.9,365.1,12.8z"/>
	<path class="st12" d="M364.1,16.6c-0.1,0.5-0.3,1.1-0.1,1.6c0.1,0.1,0.2,0.1,0.3,0c0.2-0.4,0.2-0.9,0.2-1.3c0-0.3,0.1-0.6,0.2-0.8
		c0.1-0.2,0.2-0.3,0.1-0.5c0,0,0-0.1-0.1-0.1C364.3,15.5,364.2,16.2,364.1,16.6z"/>
	<path class="st12" d="M364,21.1c-0.2,0.5-0.2,1.1-0.2,1.7c0,0.7-0.1,1.6,0.2,2.3c0,0.1,0.2,0.1,0.2,0c0.2-0.5,0.1-1,0.1-1.5
		c0-0.8,0.1-1.7-0.1-2.4C364.2,21,364.1,21,364,21.1z"/>
	<path class="st12" d="M364.5,29.5c0.4,0,0.1-0.8,0.1-1c-0.1-0.5-0.1-1-0.2-1.5c0-0.2-0.3-0.2-0.4,0c-0.1,0.4,0,0.9,0,1.4
		C364.1,28.6,364.1,29.5,364.5,29.5z"/>
	<path class="st12" d="M364.5,33c0,0.4-0.1,1,0.1,1.4c0,0.1,0.1,0.1,0.2,0c0.4-0.3,0.2-0.8,0.2-1.3c0-0.5,0-1.1-0.2-1.5
		c0,0-0.1-0.1-0.1,0C364.4,31.9,364.5,32.5,364.5,33z"/>
	<path class="st12" d="M365.1,36.9c0.1,0.4,0.1,0.9,0.4,1.1c0.1,0,0.2,0,0.2-0.1c0.2-0.4-0.1-0.8-0.2-1.2c-0.1-0.4-0.1-0.8-0.4-1.1
		c0,0-0.1,0-0.1,0C365,36.1,365.1,36.5,365.1,36.9z"/>
	<path class="st12" d="M365.7,39c-0.1,0.2-0.1,0.4,0,0.6c-0.4-0.5-0.8-1-1.1-1.6c-0.2-0.3-0.6-0.1-0.5,0.2c0.5,0.9,1.2,1.7,2,2.4
		c0.2,0.2,0.4-0.1,0.3-0.3c-0.2-0.3-0.2-0.7-0.3-1.1c0-0.2-0.1-0.2-0.2-0.4C365.8,38.8,365.7,38.9,365.7,39z"/>
	<path class="st12" d="M361.9,35.1c-0.1,0.2,0.1,0.6,0.2,0.8c0.1,0.3,0.3,0.6,0.5,0.8c0.2,0.1,0.5,0,0.3-0.3
		c-0.1-0.2-0.3-0.4-0.5-0.6c-0.1-0.1-0.2-0.3-0.3-0.4c-0.1-0.1-0.1-0.2-0.2-0.3C362,34.9,362,35,361.9,35.1z"/>
	<path class="st12" d="M361.3,33.8c-0.2-0.2-0.4-0.5-0.6-0.7c-0.2-0.2-0.3-0.5-0.6-0.5c0,0-0.1,0-0.1,0.1c-0.1,0.2,0.2,0.5,0.3,0.6
		c0.2,0.2,0.4,0.5,0.5,0.7C361.1,34.3,361.5,34,361.3,33.8z"/>
	<path class="st12" d="M357.2,30c0,0.1,0.1,0.2,0.1,0.2c0.1,0.2,0.2,0.3,0.4,0.5c0.2,0.2,0.6,0.7,0.9,0.6c0.1,0,0.1-0.1,0.1-0.1
		c0-0.3-0.5-0.5-0.7-0.6c-0.1-0.1-0.3-0.3-0.4-0.4c-0.1-0.1-0.1-0.1-0.2-0.2c-0.1-0.1-0.2-0.1-0.3-0.2c0,0,0,0,0,0
		C357.2,29.8,357.2,29.9,357.2,30z"/>
	<path class="st12" d="M355.6,30.4c0.2-0.4,0.4-0.9,0.5-1.3c0.1-0.2-0.3-0.4-0.4-0.2c-0.2,0.4-0.3,0.8-0.5,1.2
		c-0.2,0.3-0.5,0.7-0.4,1.1c0,0.1,0.1,0.1,0.2,0.1C355.3,31.2,355.5,30.7,355.6,30.4z"/>
	<path class="st12" d="M352.3,33.6c-0.1,0.2,0.2,0.4,0.4,0.3c0.2-0.2,0.4-0.5,0.6-0.7c0.2-0.3,0.5-0.5,0.8-0.7
		c0.2-0.1,0-0.4-0.2-0.3c-0.3,0.2-0.6,0.5-0.9,0.7C352.7,33.1,352.4,33.3,352.3,33.6z"/>
	<path class="st12" d="M350.9,35.2c-0.4,0.6-0.8,1.2-1,1.9c-0.1,0.3,0.3,0.5,0.5,0.2c0.3-0.6,0.5-1.3,0.8-1.9
		C351.4,35.3,351,35.1,350.9,35.2z"/>
	<path class="st12" d="M346.4,3c0.1-0.6,0-1.2-0.1-1.7c0-0.2-0.4-0.1-0.3,0.1c0.1,0.5,0,1-0.1,1.6C345.8,3.3,346.3,3.3,346.4,3z"/>
	<path class="st12" d="M346,8.3c0.3-0.5,0.3-1.2,0.3-1.7c0.1-0.5,0.1-1.3-0.3-1.6c0,0,0,0,0,0c-0.1,0.2-0.1,0.2-0.1,0.5
		c0,0.4-0.1,0.9-0.1,1.3c-0.1,0.5-0.3,1.1-0.1,1.5C345.7,8.4,345.9,8.4,346,8.3z"/>
	<path class="st12" d="M345.5,11.3c0.1-0.4,0.2-0.9,0.3-1.3c0-0.2-0.3-0.3-0.4-0.1c-0.1,0.4-0.2,0.8-0.3,1.1
		c-0.1,0.3-0.3,0.6-0.1,0.8c0,0.1,0.1,0.1,0.2,0.1C345.4,11.9,345.4,11.6,345.5,11.3z"/>
	<path class="st12" d="M344.8,15.5c-0.1-0.6-0.1-1.2,0.1-1.8c0.1-0.2-0.3-0.3-0.4-0.1c-0.2,0.6-0.2,1.2-0.2,1.8
		c0,0.5-0.1,1.1,0.2,1.5c0.1,0.1,0.2,0,0.2,0C345,16.5,344.8,15.9,344.8,15.5z"/>
	<path class="st12" d="M345.7,22.4c0.3-0.6,0.2-1.3,0-2c-0.1-0.6-0.3-1.4-0.6-2c0-0.1-0.1-0.1-0.2,0c-0.2,0.4-0.1,0.9,0,1.4
		c0.2,0.9,0.3,1.6,0.1,2.5C345.1,22.6,345.6,22.7,345.7,22.4z"/>
	<path class="st12" d="M346.2,26.4c-0.1-0.5-0.2-1-0.3-1.5c0-0.2-0.1-0.4-0.1-0.6c0-0.1-0.1-0.1-0.2-0.2c0,0,0,0,0,0
		c0,0.1-0.1,0.1-0.1,0.2c0,0.2,0,0.4,0,0.6c0.1,0.5,0.1,1,0.2,1.5C345.8,26.8,346.3,26.8,346.2,26.4z"/>
	<path class="st12" d="M346.2,30.7c-0.2-0.8-0.2-1.5-0.1-2.3c0-0.2-0.3-0.3-0.4-0.1c-0.2,0.8-0.3,1.7,0,2.5
		C345.8,31.1,346.3,31,346.2,30.7z"/>
	<path class="st12" d="M346.6,35.9c0.1-0.4-0.1-0.8-0.1-1.2c-0.1-0.5-0.1-1-0.2-1.5c0-0.2-0.3-0.2-0.3,0c0,0.5,0,1,0.1,1.5
		c0.1,0.4,0.1,0.9,0.4,1.2C346.4,36,346.6,36,346.6,35.9z"/>
	<path class="st12" d="M348.2,40.3c0.1-0.2,0.3-0.5,0.4-0.7c0.1-0.2,0.2-0.3,0.2-0.5c0.2-0.2,0.4-0.5,0.5-0.8c0,0,0-0.1-0.1-0.1
		c-0.3,0-0.5,0.4-0.7,0.6c-0.1,0.1-0.2,0.2-0.2,0.3c-0.1,0-0.2,0.1-0.2,0.2c0,0,0,0.1,0,0.1c-0.3-0.8-0.4-1.7-0.8-2.5
		c-0.1-0.2-0.5-0.1-0.4,0.1c0.4,1,0.4,2.2,0.9,3.2C347.8,40.4,348.1,40.5,348.2,40.3z"/>
	<path class="st11" d="M349.9,5.1c3.3-0.5,6.7,0.1,10,0c0.1,0,0.3-0.1,0.3-0.2c0-0.7,0.1-1.3-0.1-1.9c0-0.1-0.1-0.2-0.2-0.2
		c0,0-0.1-0.1-0.2,0c-3.4,0.5-6.8,0.1-10.2-0.2c-0.2,0-0.4,0.2-0.3,0.4c0.2,0.7,0.3,1.2,0.4,1.9C349.5,5.1,349.7,5.2,349.9,5.1z
		 M357.3,4.5c-1.1-0.1-2.3-0.1-3.4-0.2c-0.9,0-1.9,0-2.8,0.1C350,4.5,350,4,349.8,3.2c3.2,0.3,6.5,0.7,9.7,0c0,0,0,0,0,0
		C360.2,5.1,358.5,4.6,357.3,4.5z"/>
	<path class="st11" d="M362.5,3C362.4,3,362.4,3,362.5,3c-0.4-0.5-0.8-1-1.4-0.6c-0.5,0.4-0.6,1.2-0.4,1.7c0.2,0.6,1,1.2,1.6,0.8
		c0.3-0.2,0.4-0.5,0.4-0.8C362.8,3.8,362.8,3.2,362.5,3z M361.2,4c-0.1-0.3-0.1-0.8,0.1-1.1c0.2-0.4,0.6,0,0.7,0.3c0,0,0,0,0,0
		c0,0.2,0.1,0.5,0.1,0.7c0,0.2,0,0.4-0.2,0.6C361.8,4.8,361.3,4.2,361.2,4z"/>
	<path class="st11" d="M359.6,11.9C359.6,11.9,359.6,11.9,359.6,11.9c1.8-3.6-1.7-5.9-5-5.9c-1.8,0-3.4,0.4-4.4,2
		c-0.9,1.4-0.6,3.2,0.9,4c0.1,0.1,0.2,0,0.3-0.1c0.4-0.1,0.8-0.3,1.1-0.5c0.2-0.1,0.2-0.3,0.1-0.4c-1.5-1.8,0.1-2.6,1.9-2.5
		c1.6,0,3.8,1,2.6,2.9c-0.1,0.2,0,0.5,0.2,0.5c0.6,0,1.2,0.1,1.8,0.2C359.4,12.2,359.5,12.1,359.6,11.9z M357.9,11.3
		c2.2-4.5-9.3-4.3-5.9-0.2c-0.3,0.1-0.5,0.3-0.7,0.5c-1.3-1.5-1.2-3.3,0.7-4.5c1-0.6,2.4-0.5,3.5-0.5c2.9,0.2,4.4,2.2,3.8,4.8
		C358.8,11.4,358.4,11.4,357.9,11.3z"/>
	<path class="st11" d="M358.9,14.6c0-0.1-0.1-0.2-0.2-0.2c-1.8-2.8-9.6-2.5-8.6,1.8C351.1,20.9,360.5,19.2,358.9,14.6z M350.5,15.4
		c-0.1-3.2,6.3-2.6,7.8-0.8c0,0,0,0.1,0,0.1c0.1,2.2-1.4,3.3-3.5,3.6C353,18.6,350.6,17.7,350.5,15.4z"/>
	<path class="st11" d="M357.2,15.6c0-0.1,0-0.2-0.1-0.3c0,0,0,0,0,0c0,0-0.1,0-0.1,0c-1.1-1.4-5.2-1.8-5.2,0.6
		C351.8,18.6,356.6,17.7,357.2,15.6z M352.4,16.1c-0.5-1,1.1-1.4,1.8-1.5c0.8-0.1,1.8,0.1,2.4,0.8c-0.1,0.1-0.1,0.3-0.2,0.5
		c-0.3,0.4-0.8,0.6-1.2,0.8C354.3,17.1,352.9,17.2,352.4,16.1z"/>
	<path class="st11" d="M349.2,24.3c0,0.3,0.1,0.6,0.1,0.8c0,0.2,0,0.5,0,0.7c0,0.2,0.3,0.3,0.4,0.2c1.6,0.8,4.1,0.6,5.8,0.6
		c1.7,0,3.4,0,5.1-0.1c0.2,0,0.3-0.2,0.2-0.4c0-0.2-0.1-0.5-0.1-0.7c-0.1-0.3-0.1-0.7-0.2-1c0-0.1-0.1-0.2-0.1-0.2c0,0,0,0,0,0
		c-0.1-0.1-0.2-0.1-0.3-0.1c-1.8,0.6-3.8,0.5-5.7,0.2c1.7-1,3.6-1.4,5.4-2c0.1,0,0.2-0.2,0.2-0.3c-0.1-0.5,0-1.1-0.1-1.6
		c0.1-0.1,0-0.3-0.2-0.3c-1.9,0.1-3.9-0.1-5.8-0.2c-1.2-0.1-3-0.6-4.2-0.2c-0.1-0.1-0.2,0-0.3,0.1c-0.2,0.4-0.2,0.8-0.2,1.2
		c0,0.3-0.1,0.7,0.1,1c0,0,0,0,0,0c0,0,0.1,0.1,0.1,0.1c1.4,0.1,2.8,0.3,4.2,0.2c-0.4,0.2-0.8,0.3-1.2,0.5c-0.7,0.3-1.3,0.5-2,0.8
		c-0.3,0.1-0.8,0.2-1,0.5C349.3,24.1,349.2,24.2,349.2,24.3z M351.8,23.6c1-0.4,2.1-0.9,3.1-1.4c0.2,0,0.5-0.1,0.7-0.2
		c0.3-0.1,0.3-0.5-0.1-0.5c-1.9,0.1-3.9,0.1-5.8,0.2c0-0.2,0-0.3,0-0.5c0-0.4,0-0.7,0-1.1c1.3,0.5,3.3,0.3,4.6,0.5
		c1.7,0.1,3.4,0.2,5,0.1c-0.1,0.4-0.1,0.9,0,1.3c-2.1,0.5-4.2,1.1-6,2.3c-0.2,0.2-0.1,0.5,0.2,0.5c2.1,0.4,4.5,0.5,6.6-0.1
		c0,0.1,0,0.1,0,0.2c0,0.2,0,0.3,0.1,0.5c0,0.1,0,0.3,0,0.4c-1.9,0.2-3.8,0.2-5.7,0.1c-1.4,0-3.2-0.4-4.6-0.2c0.1-0.4,0-0.9-0.2-1.4
		C350.3,24.4,351.3,23.8,351.8,23.6z"/>
</g>
<g>
	<path class="st13" d="M111.3,248.6c0,0.1,0.1,0.1,0.1,0.1c-1.3,8.8,3.2,20.1,5.7,27.3c3.3,9.6,14.5,14.4,19.5,2.9
		c5.2-12.2,1.4-29.5-8.9-38.2c-3.9-3.3-8.3-5.5-13.1-2.8C111.5,239.8,110.5,245.5,111.3,248.6z M130,247.3
		c6.6,8.7,8.8,22.8,3.2,32.4c-2.5,1.5-4.6,2.3-6.4,2.5c0,0,0.1-0.1,0.1-0.1c0.6-0.7,1.3-1.3,1.9-1.9c1.1-1.1,2.3-2.1,3.4-3.2
		c0.6-0.6-0.2-1.5-0.8-0.9c-1.2,1.2-2.5,2.4-3.7,3.5c-0.7,0.7-1.9,1.6-2.5,2.6c-2-0.3-3.5-1.6-4.5-3.9c-0.5-1.1-1-2.2-1.4-3.4
		c-0.2-0.5-0.4-1.1-0.6-1.6c0.1,0,0.3,0,0.4-0.1c2.8-4.3,7.1-7.6,11.5-10.2c0.8-0.4,0.1-1.6-0.6-1.2c-2.6,1.5-5,3.3-7.3,5.2
		c-1.5,1.2-4.2,3.3-4.3,5.5c-0.2-0.7-0.4-1.4-0.6-2.2c0.1,0,0.2,0,0.2-0.1c0.6-0.6,0.8-1.5,1.3-2.2c0.9-1.3,2.1-2.3,3.2-3.3
		c1.9-1.6,4.1-3,6.2-4.5c0.6-0.4-0.1-1.2-0.7-0.9c-2.4,1.6-4.9,3.2-7.1,5.2c-0.9,0.8-3,2.6-3.5,4.2c-0.1-0.5-0.3-1.1-0.4-1.6
		c0.6-0.6,1-1.4,1.5-2c0.7-0.9,1.7-1.7,2.6-2.5c1.6-1.4,3.4-2.5,5.1-3.9c0.6-0.5-0.2-1.3-0.7-0.9c-1.8,1.5-3.7,2.8-5.5,4.2
		c-1.1,0.9-2.7,2.2-3.3,3.7c-0.1-0.2-0.1-0.5-0.2-0.7c-0.1-0.4-0.2-0.9-0.3-1.3c2-2.1,3.7-4.3,5.8-6.3c2.4-2.2,5.1-4.2,7.6-6.3
		c0.6-0.4-0.2-1.3-0.7-0.9c-4.4,3.4-10.4,7.2-13,12.4c-0.2-1-0.5-2.1-0.6-3.1c0.5-0.8,1-1.5,1.7-2.2c1.1-1.2,2.3-2.3,3.5-3.4
		c2.4-2.1,5.4-4,7.1-6.7c0.2-0.2-0.2-0.5-0.4-0.4c-3,2.2-5.8,4.8-8.7,7.2c-1.1,0.9-2.5,2.2-3.5,3.5c-0.1-0.5-0.2-1.1-0.2-1.6
		c0.9-1.4,1.7-2.9,2.6-4.2c1.6-2.5,3.4-5,5.8-6.8c0.5-0.4-0.1-1.2-0.6-0.8c-2.5,1.8-4.4,4.4-6.2,6.9c-0.6,0.8-1.2,1.6-1.8,2.5
		c-0.1-0.8-0.1-1.5-0.1-2.3c1.3-1.6,2.4-3.5,3.7-5.1c1.6-2,3.9-3.8,5-6.1c0,0,0-0.1,0-0.1c0.5,0.3,1,0.7,1.5,1.1
		C126.8,243,128.5,245.3,130,247.3z M122.7,240.2C122.7,240.2,122.7,240.2,122.7,240.2c-2.1,1.4-3.8,3.8-5.5,5.7
		c-0.9,1-1.9,2-2.7,3.2c0.1-2.1,0.4-4.4,0.8-6.7C117.8,239.6,120.3,238.9,122.7,240.2z"/>
	<path class="st13" d="M175.3,242.7c-0.1,0.5,0.4,1.1,0.9,1c1.5-0.3,2-1.9,2.6-3.1c0.3-0.6,0.6-1.2,1-1.8c0.3-0.5,0.6-0.6,0.9-0.8
		c0.1,0,0.1,0.1,0.2,0.1c0.1,0.1,0.2,0,0.2-0.1c0-0.2-0.1-0.4-0.1-0.6c0-0.4-0.5-0.8-0.9-0.7c-1.2,0.2-2,1.4-2.6,2.3
		C176.7,240.1,175.7,241.3,175.3,242.7z"/>
	<path class="st13" d="M166.2,228.7c1.5-0.4,3.2-0.6,4.5-1.3c0.4-0.2,0.3-0.8-0.1-1c-1.6-0.8-3.5,0.2-5.1,0.8
		C164.6,227.5,165.2,229,166.2,228.7z"/>
	<path class="st13" d="M159.1,220c1,0.4,2,0.2,3.1,0c1.5-0.3,3-0.3,4.5,0.1c0.8,0.2,1.1-1,0.4-1.3c-2.3-1-6.3-1.7-8.3,0.2
		C158.6,219.2,158.8,219.8,159.1,220z"/>
	<path class="st13" d="M290.7,245.5c-0.4-0.7-0.1-1.5,0.5-1.9c0.8-0.5,0-1.8-0.8-1.4c-1.6,0.8-2.2,2.6-1.7,4.2
		C289.2,247.6,291.3,246.7,290.7,245.5z"/>
	<path class="st13" d="M295.8,238.6C295.8,238.6,295.8,238.6,295.8,238.6C295.8,238.6,295.8,238.6,295.8,238.6z"/>
	<path class="st13" d="M297.4,239.5c-0.4-0.2-0.9-0.1-1.4,0c-0.2,0.1-0.4,0.2-0.6,0.3c0.1-0.1,0.1-0.3,0.1-0.4
		c0.1-0.2,0.1-0.2,0.2-0.4c0,0,0-0.1,0-0.1c0,0,0-0.1,0.1-0.2c0,0,0-0.1,0-0.1c0,0,0,0,0,0.1c0,0,0,0,0,0c0-0.1,0-0.1,0-0.1
		c0-0.3-0.1-0.5-0.4-0.7c-1.2-0.6-1.8,1.4-2.1,2.2c-0.2,0.4,0,0.8,0.3,1.1c0.7,0.6,1.5,0.8,2.3,0.5c0.7-0.2,1.6-0.8,1.7-1.6
		C297.7,239.8,297.6,239.6,297.4,239.5z"/>
	<path class="st13" d="M298.9,235.6c0.6,0.1,1.2-0.6,0.7-1.1c-0.1-0.1-0.1-0.2-0.1-0.4c0.1-1.2-1.7-1.2-1.6,0
		C297.9,234.7,298.1,235.5,298.9,235.6z"/>
	<path class="st13" d="M293.6,235.4c0.6-0.4,0.7-0.9,1-1.6c0.1-0.1,0.2-0.5,0.3-0.5c0.1-0.1,0.4-0.2,0.4-0.4c0-0.1,0-0.1,0-0.2
		c0-0.2-0.1-0.4-0.3-0.5c-1.6-0.6-2.9,1.5-2.4,2.8C292.8,235.5,293.2,235.7,293.6,235.4z"/>
	<path class="st13" d="M294.9,249.6c-0.4-0.1-0.6,0-1,0.1c0,0-0.4,0-0.2,0c0,0,0,0-0.1,0l0,0l0,0c0,0,0,0,0,0c0,0,0,0,0,0l0,0
		c0,0,0,0,0,0l0,0c0,0,0,0,0,0c0-0.1,0-0.1,0-0.2c0-0.1,0-0.1,0-0.2c0,0,0-0.1,0-0.2c0-0.4-0.1-0.8-0.4-1c-0.4-0.3-1-0.2-1.3,0.2
		c-0.6,0.8-0.3,2.2,0.3,2.9c0.9,0.9,2.6,0.9,3.5,0C296.2,250.5,295.8,249.8,294.9,249.6z M293.6,249.7
		C293.6,249.7,293.6,249.7,293.6,249.7C293.6,249.7,293.6,249.7,293.6,249.7C293.6,249.7,293.6,249.7,293.6,249.7z M293.7,249.8
		L293.7,249.8C293.7,249.8,293.7,249.8,293.7,249.8C293.7,249.8,293.7,249.8,293.7,249.8z"/>
	<polygon class="st13" points="293.7,249.7 293.6,249.7 293.7,249.7 	"/>
	<path class="st13" d="M299.4,245.5c-0.2,0-0.4,0.1-0.5,0.2c0-0.2,0.1-0.3,0.1-0.4c0.4-0.8-0.8-1.5-1.3-0.8c-0.5,0.7-0.7,1.9,0,2.6
		c0.6,0.7,1.2,0.4,2,0.3C300.8,247.3,300.6,245.3,299.4,245.5z"/>
	<path class="st13" d="M301.8,238.8c-0.7,0.5-1.2,1.2-1.3,2.1c-0.1,0.8,0.2,1.7,0.9,2.2c0.3,0.2,0.7,0.3,1,0.1
		c0.8-0.5,0.6-1,0.2-1.9c-0.2-0.4,0.2-1.2,0.4-1.5C303.3,239,302.3,238.4,301.8,238.8z"/>
	<path class="st13" d="M286.8,252.2c-0.2-0.1-0.2-0.1-0.3-0.2c-0.1-0.3,0.2-0.9,0.6-1.3c0.7-0.8-0.5-1.9-1.2-1.2
		c-1.1,0.9-1.9,2.4-1.2,3.8c0.7,1.5,3.3,2.2,4.2,0.5c0.2-0.3,0-0.7-0.2-0.9C288.2,252.4,287.4,252.4,286.8,252.2z"/>
	<path class="st13" d="M294.3,256.1c-0.4-0.1-1,0-1.4,0c-0.1-0.1-0.2-0.5-0.3-0.6c-0.5-1.4-2.5-0.4-2,0.9c0.3,0.8,0.7,1.5,1.5,1.8
		c1,0.4,2-0.1,2.7-0.8C295.3,257,294.9,256.2,294.3,256.1z"/>
	<path class="st13" d="M282.7,219.5c0.5,3.3,0.9,8.2,4.3,9.9c0.4,0.2,0.9-0.2,0.7-0.6c-0.6-1.6-1.4-3-2-4.6c-0.5-1.6-0.8-3.3-1-4.9
		C284.5,218,282.5,218.2,282.7,219.5z"/>
	<path class="st13" d="M293.9,202.4c-1.3,0.1-2,1.4-2.3,2.5c-0.4,1.6-0.3,3,0.1,4.6c0.2,0.7,1.1,0.5,1.2-0.1
		c0.3-1.2,0.2-2.2,0.3-3.3c0-0.5,0.1-1.1,0.3-1.6c0.2-0.5,0.7-0.9,1-1.3C294.7,202.9,294.3,202.4,293.9,202.4z"/>
	<path class="st13" d="M300.9,203.3c-0.9,2.4-3,6.2-1.8,8.8c0.3,0.6,1,0.6,1.3,0.1c0.6-1.2,0.6-2.5,0.7-3.8c0.2-1.7,0.5-3.3,0.5-5
		C301.6,202.9,301,202.9,300.9,203.3z"/>
	<path class="st13" d="M324,243.4c-2.9-1.1-6.4,0.1-9.4,0.3c-0.8,0.1-0.9,1.5-0.1,1.5c2.1,0.1,4.5,0.3,6.8,0c-2,1-4.2,1.6-6.5,0.8
		c-0.6-0.2-1,0.7-0.4,1c3.8,1.5,8-0.2,10.5-3.3c0.2-0.3-0.1-0.7-0.4-0.5c-0.1,0.1-0.3,0.2-0.4,0.3
		C324.1,243.4,324.1,243.4,324,243.4z"/>
	<path class="st13" d="M272.9,253c-0.6,0.4-1,1.4-0.2,1.9c0.5,0.3,0.8,0.3,1.3,0.3c1.5,0,1.7-2.3,0.2-2.3
		C273.8,252.8,273.3,252.7,272.9,253z"/>
	<path class="st13" d="M137,218.8c2.3-1,4.6-1.1,7-1.6c0.3-0.1,0.2-0.6,0-0.6c-2.4-0.5-5.1,0.4-7.2,1.4
		C136.3,218.2,136.5,219,137,218.8z"/>
	<path class="st13" d="M140.9,221c3.1-1.2,6.3-0.8,9.5-1.3c0.3-0.1,0.4-0.6,0-0.6c-2.8-0.5-7.6-0.5-9.7,1.7
		C140.7,220.9,140.8,221.1,140.9,221z"/>
	<path class="st13" d="M145.4,224.3c2.2-0.5,4.4-1,6.6-1.6c0.3-0.1,0.2-0.6-0.1-0.6c-2.3,0.2-4.4,0.8-6.6,1.4
		C144.8,223.6,145,224.4,145.4,224.3z"/>
	<path class="st13" d="M147.9,225.9c-0.5,0.1-0.9,0-1.2,0.4c0,0,0,0.1,0,0.1c0.6,0.8,2.2,0.2,3,0.1c1.9-0.2,3.8-0.5,5.7-0.9
		c0.3-0.1,0.2-0.5,0-0.6c-1.6-0.3-3.2,0-4.8,0.3C149.7,225.6,148.8,225.8,147.9,225.9z"/>
	<path class="st13" d="M155.4,228.6c-0.9,0.2-1.8,0.6-2.7,0.9c-1.1,0.4-2.2,0.7-3.4,1.1c-0.3,0.1-0.2,0.7,0.1,0.6
		c2-0.4,4.6-0.7,6.2-2.1C155.8,229,155.7,228.5,155.4,228.6z"/>
	<path class="st13" d="M133.2,216.9c0.1-0.8,1.1-0.7,1.7-0.8c0.3-0.1,0.2-0.5,0-0.5c-1-0.2-2.3-0.1-2.4,1.2
		C132.5,217.3,133.2,217.4,133.2,216.9z"/>
	<path class="st13" d="M152.5,235.9c1.4-0.3,2.9-0.6,4.3-0.9c1.3-0.3,2.5-0.3,3.8-0.7c0.4-0.1,0.3-0.6-0.1-0.7
		c-2.6-0.7-5.7,0.8-8.1,1.4C151.7,235.1,151.8,236,152.5,235.9z"/>
	<path class="st13" d="M152.3,240.1c-0.4,0.2-0.2,0.6,0.1,0.6c1.5,0.1,3.1-0.5,4.6-0.9c1.6-0.4,3.1-0.9,4.6-1.6
		c0.3-0.2,0.3-0.8-0.2-0.7c-1.4,0.3-2.7,0.7-4,1.1C155.7,239.2,153.9,239.4,152.3,240.1z"/>
	<path class="st13" d="M154.5,243c-0.5-0.1-0.7,0.7-0.2,0.9c3.1,1.2,6.8-0.5,9.3-2.2c0.3-0.2,0-0.5-0.2-0.5
		C160.5,241.7,157.4,243.7,154.5,243z"/>
	<path class="st13" d="M155.8,246.6c-0.5,0.2-0.2,0.9,0.3,0.8c2.6-0.9,5.3-0.7,7.9-1.2c0.2,0,0.2-0.4,0-0.5
		C161.2,245.2,158.4,245.5,155.8,246.6z"/>
	<path class="st13" d="M157.5,249.2c-0.3,0-0.4,0.3-0.2,0.5c2.1,1.4,6.2,1.2,8.3,0c0.2-0.1,0.1-0.5-0.1-0.6
		c-1.1-0.2-2.2,0.1-3.3,0.3C160.5,249.6,159.1,249.3,157.5,249.2z"/>
	<path class="st13" d="M165.6,254.7c0.2-0.1,0.1-0.4-0.1-0.4c-2.6,0-4.8,1.6-7.4,0.9c-0.4-0.1-0.6,0.5-0.2,0.7
		C160.4,256.8,163.2,255.8,165.6,254.7z"/>
	<path class="st13" d="M159.1,260.1c-0.5-0.2-0.8,0.6-0.3,0.8c2.4,0.9,5.1,0.2,7.7,0.4c0.3,0,0.3-0.3,0.1-0.4
		C164.2,259.3,161.6,260.9,159.1,260.1z"/>
	<path class="st13" d="M164,268.3c-1.1-0.2-2.3-0.2-3.4-0.6c-0.4-0.2-0.7,0.4-0.3,0.6c1.2,0.6,2.5,0.6,3.7,0.4
		C164.2,268.6,164.2,268.3,164,268.3z"/>
	<path class="st13" d="M150.4,302.4c-2.1-0.5-4.4-0.4-6.6-0.4c-0.1,0-0.2,0.2-0.1,0.3c2,0.9,4.6,1.1,6.6,0.6
		C150.7,302.7,150.6,302.4,150.4,302.4z"/>
	<path class="st13" d="M155,299.3c-1.4-0.1-2.9,0.3-4.3,0.3c-1.3,0-2.6,0-3.9,0c-0.6,0-0.6,1,0,1c2.5,0.1,6.3,1.1,8.3-0.8
		C155.3,299.6,155.2,299.3,155,299.3z"/>
	<path class="st13" d="M157.9,294.7c-2.2,0.4-4.3,0.8-6.6,0.9c-0.6,0-0.6,1,0,1c2.2,0,5,0.3,6.8-1.2
		C158.4,295.1,158.3,294.6,157.9,294.7z"/>
	<path class="st13" d="M161.5,289.7c-1.8-0.1-3.7,0.3-5.5,0.3c-0.7,0-0.9,1.2-0.1,1.2c1.9,0,4.1,0.2,5.8-0.8
		C161.9,290.2,161.8,289.7,161.5,289.7z"/>
	<path class="st13" d="M163.3,282.2c-1.3,0.3-2.4,0.9-3.6,1.3c-0.7,0.2-0.2,1.4,0.5,1.1c1.3-0.4,2.4-0.9,3.5-1.8
		C164,282.5,163.7,282.1,163.3,282.2z"/>
	<path class="st13" d="M121,274.9c0,0.3,0.3,0.6,0.6,0.3c1.6-2.1,2.8-4,4.9-5.8c2-1.7,4.2-3,6.3-4.5c0.6-0.5-0.2-1.4-0.8-0.9
		c-2.3,1.6-4.6,3.1-6.7,4.9C123.5,270.4,121.2,272.5,121,274.9z"/>
	<path class="st13" d="M132.6,267.6c-2.2,1.8-4.5,3.5-6.7,5.5c-1.3,1.2-4.2,3.5-3.9,5.5c0,0.3,0.4,0.4,0.6,0.2
		c0.6-0.6,0.9-1.5,1.4-2.2c0.8-1.1,1.9-2.1,2.9-3.1c2-1.8,4.2-3.4,6.2-5.1C133.7,268,133.1,267.2,132.6,267.6z"/>
	<path class="st13" d="M116.9,228c1.8-0.9,2.7-2.1,4.9-2.1c2.4,0,4.7,1.5,6.6,2.8c3.2,2.1,5.4,5.1,8.3,7.4c0.2,0.1,0.5,0,0.4-0.2
		c-1.3-4-6.8-8-10.5-9.7C123.9,224.9,117.6,223.4,116.9,228C116.8,227.9,116.8,228,116.9,228z"/>
	<path class="st13" d="M120.8,230.8c-0.1,0-0.1,0.1,0,0.1c3.1,0.8,6,1.7,8.7,3.3c2.8,1.6,5,4,7.7,5.8c0.2,0.1,0.4-0.2,0.3-0.3
		C134.1,234.9,127,230.6,120.8,230.8z"/>
	<path class="st13" d="M132.4,240.1c-0.5-0.1-0.6,0.6-0.1,0.7c2.7,0.7,3.5,3.3,4.8,5.4c0.2,0.3,0.8,0.1,0.7-0.3
		C137.2,243.3,135.1,240.6,132.4,240.1z"/>
	<path class="st13" d="M142.6,250.4c-0.4-1.6-0.5-3.1-1.7-4.5c-0.1-0.1-0.2,0-0.1,0.1c0.7,1.4,0.8,3.1,1.4,4.5
		C142.3,250.8,142.7,250.7,142.6,250.4z"/>
	<path class="st13" d="M109.5,250.5c0.5-2.8,0.6-5.6,1.1-8.4c0.3-1.9,0.8-3.7,1.6-5.4c0.5-1.2,1.7-2,2.1-3.2c0,0,0,0,0,0
		c-2.5,0.1-3.7,4.9-4.2,6.8c-0.9,3.2-1.6,7.1-1,10.3C109.2,250.7,109.5,250.7,109.5,250.5z"/>
	<path class="st13" d="M106.8,254.5c1.1,8.2,2.2,16.9,5.2,24.7c0.1,0.4,0.8,0.2,0.7-0.2C111.1,270.8,108.5,262.7,106.8,254.5
		C106.8,254.4,106.8,254.4,106.8,254.5z"/>
	<path class="st13" d="M129,288.7c0.1-0.1,0-0.4-0.2-0.3c-13.2,5.6-14.1-17.4-18.5-24.9c0,0-0.1,0-0.1,0
		C112.1,269.8,117.7,299.2,129,288.7z"/>
	<path class="st13" d="M138.5,285.5c0,0,0,0.1,0,0.1c-1.3,0.8-2.5,2-3.7,2.9c-1.7,1.3-3.5,2.3-5.6,2.8c-0.3,0.1-0.2,0.5,0,0.6
		c2,0.3,3.7-0.7,5.3-1.8c1.7-1.1,3.9-2.6,5-4.3c0.1-0.2,0-0.4-0.1-0.5c3.4-4.7,10-15.2,4.6-20.1c-0.3-0.3-0.9,0.2-0.6,0.6
		C148.3,271.7,140,279.6,138.5,285.5z"/>
	<path class="st13" d="M141.6,287.3c-0.2,0.3,0.1,0.7,0.4,0.5c4.4-2.9,6.3-10.3,6.1-15.3c0-0.4-0.6-0.4-0.6,0
		c-0.7,2.7-1,5.3-1.9,7.9C144.8,283,143.3,285.1,141.6,287.3z"/>
	<path class="st13" d="M140,274c0.1,0.4,0.6,0.4,0.7,0c0.3-2.5-0.1-4.9-0.4-7.4c-0.4-3.2-0.5-6.5-0.9-9.7c0,0-0.1,0-0.1,0
		c-0.6,2.4-0.4,4.8-0.2,7.4C139.3,267.5,139.5,270.8,140,274z"/>
	<path class="st13" d="M138.3,290.2c-3.1,1.2-6.3,5.2-9.9,4.6c-0.3,0-0.5,0.4-0.2,0.5c1.7,0.8,3.6-0.2,5.1-1c1.9-1,3.7-2.1,5.2-3.5
		C138.8,290.6,138.6,290.1,138.3,290.2z"/>
	<path class="st13" d="M125.8,295.2c-2.8,0.1-5.5-0.6-7.4-2.8c-0.1-0.2-0.3,0.1-0.3,0.2c1.4,3,4.7,4,7.8,3.2
		C126.4,295.8,126.2,295.2,125.8,295.2z"/>
	<path class="st13" d="M304.3,269.9C304.3,269.9,304.3,269.9,304.3,269.9c-0.1,3.7-1.4,10.6,3.4,11.9c0.3,0.1,0.4-0.3,0.2-0.5
		c-3.2-3-2.8-6.8-2.8-10.8c0.1,0.1,0.2,0.2,0.3,0.3c-0.1,0.2-0.1,0.3,0,0.5c0.6,2,1.3,10.6,4.8,9.9c0.3-0.1,0.6-0.2,0.6-0.6
		c0.1-1.5-1.4-2.9-2-4.2c-0.4-1-0.8-2-1.1-3.1c1.5,1.6,3.1,3.4,5.3,3.9c0.3,0.1,0.5-0.3,0.2-0.5c-2.2-1.7-4-4-6-5.9
		c-1.1-1.1-3.2-3.2-4.9-2.2c-0.3,0.2-0.1,0.6,0.2,0.6C303.3,269.3,303.8,269.5,304.3,269.9z"/>
	<path class="st13" d="M316.1,219.7c-1,0.7-2.2,1.3-2.8,2.4c-0.4,0.7,0.6,1.2,0.9,0.5c0.3-0.5,0.7-0.9,1.1-1.3
		c0.4-0.4,0.7-0.8,1.1-1.2C316.6,219.8,316.4,219.5,316.1,219.7z"/>
	<path class="st13" d="M316.4,217.7c-1.3,0.8-2.7,1.5-4.1,2.3c-1,0.6-2.6,1.5-3,2.7c-0.1,0.4,0.2,0.7,0.6,0.6c1.1-0.3,2.1-1.4,3.1-2
		c1.3-0.8,2.8-1.5,4.1-2.3C318,218.6,317.2,217.2,316.4,217.7z"/>
	<path class="st13" d="M302.7,207.9C302.8,207.9,302.8,207.8,302.7,207.9C302.7,207.8,302.7,207.9,302.7,207.9z"/>
	<path class="st13" d="M319.6,210c-0.4,0.1-0.2,0.8,0.2,0.7c1.9-0.4,3.7-0.9,5.5-1.7c0.2-0.1,0.2-0.5-0.1-0.5
		C323.3,208.8,321.5,209.5,319.6,210z"/>
	<path class="st13" d="M341.8,235.2c0.3-0.1,0.4-0.6,0-0.6c-0.1,0-0.2,0-0.4-0.1c-1.4-9.7-5.1-19.2-11.9-25.7
		c-4.4-6.9-12.8-8.9-21.1-9.6c-2.5-5.9-5.4-11.7-7.3-17.9c-2.2-7-2.9-13.4-6.4-20c-3-5.6-6.1-10.7-10.6-15.2c-4.6-4.6-7.9-10-12-15
		c-3.9-4.6-9-8-14.6-10.5c0.1-0.4-0.5-0.7-0.8-0.4c0,0,0,0,0,0c-5.8-2.5-12.1-4.1-18-5.1c-15.3-2.7-30.2-5.6-45.8-3.1
		c-14.1,2.2-28.7,5.2-41.7,11.3c-12.2,5.7-22.2,15.7-30.1,26.5c-8.1,11.1-12.6,24.7-14.7,38.1c-1.7,10.8-2.5,25.6,4.2,35
		c-0.2,0.3-0.5,0.6-0.7,0.9c-4.5,6-9.5,16.6-9.5,25.2c-0.4,5.3,0.6,13,0.8,14.8c1.3,11.1,5.9,23,12.5,32c1.2,1.6,2.6,3.2,4.2,4.6
		c0,0.2,0.1,0.3,0.2,0.5c8.2,8.5,21,9.4,31.6,5.5c2.2,2.2,6.4,1.6,9.4,1.1c6.8-1.1,11.6-5.1,16.1-10.1c9.7-11.1,14-26.4,13.6-40.9
		c-0.4-16.2-9.4-30-20.7-40.9c-6.9-6.7-19.9-11-28-4.5c-2.1-0.3-4.2-0.4-6.2-0.3c-1.2,0.1-2.9,0.4-4.8,0.8c-0.1-3-1.1-6.2-1.5-9.1
		c-0.9-6.3-1.2-12.7-1.2-19c0.1-10.9,4-19.9,10.1-28.8c12.1-17.6,34-26.8,54.3-31.4c3.4,1.5,8.1,0.9,12.6,0.3c4,1.1,7.5,2.2,8.8,2.5
		c9.1,2.4,17.6,5.2,25.8,9.4c0,0,0,0.1,0,0.1c0.1,0,0.2,0,0.3,0.1c1.6,0.9,3.2,1.7,4.9,2.7c2.2,1.3,4.2,2.8,6.1,4.3
		c-0.1,0.1-0.2,0.1-0.3,0.2c-0.2,0.1-0.1,0.5,0.2,0.4c0.2,0,0.4-0.1,0.7-0.1c4.2,3.5,7.7,7.5,10.8,11.9c0,0,0,0,0,0
		c-0.1,0.4,0.1,0.5,0.4,0.6c2.3,3.4,4.3,6.9,6.2,10.7c5.9,11.6,15.6,21.1,20.6,33.2c-0.6,0.2-1.3,0.5-1.9,0.8
		c-0.7,0.3-0.9,0.9-0.8,1.4c-6.4,3.9-11.3,11.9-14.1,18.1c-2.1,4.7-4.2,9.8-5.8,15.2c0,0.1-0.1,0.1-0.1,0.2
		c-0.9,2.8-1.6,5.6-2.2,8.5c-0.2-0.1-0.4-0.2-0.5-0.4c-0.5-0.4-1.2,0.5-0.6,0.9c0.3,0.2,0.6,0.5,0.9,0.7c-0.3,1.7-0.6,3.4-0.7,5
		c-0.4-0.5-1.2,0.2-0.8,0.7c0.2,0.3,0.4,0.5,0.7,0.8c-0.2,2.3-0.2,4.5,0,6.7c0.6,8.4,2.2,15,6.9,20.8c0.1,0.3,0.2,0.5,0.4,0.8
		c0.1,0.2,0.3,0.2,0.4,0.2c1.2,1.4,2.7,2.7,4.3,4c8.3,6.5,18.2,9.5,28.3,6.8c5.6,2.8,13.4-1.8,18.4-6.2c6-0.5,11.3-6.6,14.4-11.3
		c4.4-6.6,6.2-14.7,7-22.5c0.5-4.9,0.4-10.3-0.3-15.6C341.7,235.3,341.8,235.3,341.8,235.2z M333.1,216.9c2.1,3.7,3.6,7.9,4.6,12.1
		c-0.3-0.1-0.6-0.1-0.8-0.1c-0.8,0-0.9,1.2-0.1,1.2c0.5,0,0.8,0.1,1.2,0.2c0.3,1.4,0.6,2.7,0.8,4.1c-0.6,0-1.3,0-1.9,0
		c-0.2,0-0.4,0.1-0.5,0.2C335.9,228.4,334.9,222.3,333.1,216.9z M329.1,213.6c1.1,2.3,1.9,4.8,2.6,7.5c-1.3,0.2-2.5,0.6-3.8,1
		c-0.9,0.3-1.8,0.4-2.8,0.5c-0.4-1.2-0.9-2.4-1.5-3.6c1.6-0.3,3.2-0.7,4.7-1.4c0.3-0.1,0.2-0.5-0.1-0.5c-1.7,0.1-3.4,0.5-5.1,0.9
		c-0.5-1-1.1-2-1.7-3c1.8,0.1,3.9-0.5,5.4-1.3c0.4-0.2,0.3-0.8-0.2-0.7c-1.9,0.1-3.9,1.2-5.8,1c-3.1-4.9-7.1-9.1-11.8-11.9
		c4.8,0.6,9.5,1.3,13.4,3.7c-1.4,0.2-2.9,0.5-4.2,1c0,0,0,0,0,0.1c0.8,0.2,1.5,0.2,2.3,0.1c0.9-0.1,1.9-0.3,2.8-0.5
		C325.6,208,327.6,210.3,329.1,213.6z M324.2,240c0.4,0.5,1,0.8,1.5,1.1c0.1,1.9,0.1,3.7,0.1,5.6c-0.1,0.2-0.1,0.4,0,0.6
		c0,1.8-0.2,3.5-0.3,5.3c-0.1,0.1-0.1,0.1-0.2,0.2c-3,0.1-5.9-0.6-8.8-1.4c-0.8-0.2-1.2,1-0.4,1.2c2.9,0.8,6.2,1.9,9.3,1.2
		c-0.4,2.8-0.9,5.6-1.6,8.3c-0.8-0.1-1.7-0.4-2.5-0.7c0.2-0.1,0.4-0.2,0.6-0.3c0.4-0.2,0.4-0.8,0.2-1.2c-1-1.3-3.1-1.7-4.6-2.3
		c-1-0.4-2-0.8-3-1.1c0,0-0.1-0.1-0.1-0.1c-0.3-0.3-0.6-0.3-0.9-0.1c0,0,0,0,0,0c-0.3,0-0.5,0-0.7,0.2c-0.6-0.5-1.2-1.1-1.8-1.6
		c0.2-0.3,0.2-0.9-0.2-1.1c-0.5-0.5-1.2-0.8-1.9-1.1c-0.8-1.1-1.4-2.2-1.6-3.4c0.3,0.2,0.5,0.3,0.8,0.5c1.5,0.9,2.5,1.1,4.2,1.2
		c0.5,0,0.7-0.7,0.3-1c-0.8-0.7-1.5-1.4-2.5-1.9c-1.3-0.6-2.5-1.3-3.8-2c0.3-1.3,0.5-2.6,0.7-3.8c1.7,4.2,7.5,5.8,11.1,7.8
		c0.2,0.1,0.4-0.2,0.3-0.4c-2.9-3.2-9.2-4.1-10.7-8.5c-0.1-0.3-0.3-0.3-0.5-0.3c0-0.3,0-0.6,0.1-0.9c2.9,1.5,6.8,2.4,10,2.1
		c0.2,0,0.3-0.4,0.1-0.4c-3.1-1.2-6.8-1.4-10.1-1.9c0-0.7,0.1-1.3,0-1.9c0-1.2-0.4-2.5-0.9-3.8c0.4,0,0.9-0.1,1.4-0.1
		c1.8,0,3.6,0,5.4,0.1c-1.5,0.8-2.8,1.7-3.9,2.6c-0.7,0.6,0.1,1.8,0.9,1.2c0.7-0.5,1.4-0.9,2.1-1.2c0.1,0.1,0.1,0.1,0.2,0.1
		c3.6,1,7-0.8,9.4-3.3c0.2-0.2-0.1-0.6-0.4-0.4c-0.1,0-0.1,0.1-0.2,0.1c-0.1-0.3-0.3-0.5-0.6-0.5c-2-0.5-4.4,0-6.5,0.9
		c-2.7-1-5.7-1.1-8.5-0.6c-0.2-0.3-0.3-0.6-0.5-0.8c1.8-2.5,3.7-4.9,6.3-6.6c-0.8,1-1.3,2.3-1.7,3.5c-0.3,1,1,1.6,1.5,0.7
		c0.1-0.2,0.2-0.4,0.3-0.5c2.9-1.7,6.4-3.4,8.2-6.2c0.2-0.2-0.2-0.5-0.4-0.3c-1.4,0.8-2.6,1.9-4,2.9c-0.8,0.6-1.6,1.2-2.5,1.7
		c0.9-1.1,2-2.1,3-3.1c0.3-0.3,0-0.9-0.4-0.9c-1.4,0-2.5,0.5-3.5,1.5c0-0.4-0.3-0.8-0.7-0.5c-2.8,1.7-5.1,4.1-6.8,6.9
		c-0.5-0.7-1-1.3-1.6-1.9c-0.4-3.7,3-7.3,6.4-8.5c0.7-0.2,0.3-1.4-0.4-1.2c-2.4,0.7-7,4.6-7.8,8c-1.4-1.1-2.9-1.9-4.5-2.3
		c1.7-3.9,1.7-9.8,6-11.7c0.1,0,0.2-0.1,0.2-0.2c0.7-0.4,1.4-0.9,2.1-1.2c1.7-0.9,3.3-1.9,4.8-3.1c0.4-0.4-0.1-1-0.5-0.7
		c-1.5,1.1-3.1,2-4.7,2.8c-1.3,0.7-2.9,1.2-3.8,2.3c-0.1,0.1-0.1,0.2-0.1,0.2c-3.3,2.4-4.1,7.5-4.9,11.4c-0.9-0.2-1.9-0.2-2.8,0
		c-0.1-0.1-0.2-0.2-0.3-0.3c-0.6-4.9-1.2-10.7,1.8-14.8c0.4-0.5-0.4-1-0.7-0.6c-1.5,1.9-2.5,4.7-2.9,7.7c-0.2,0.1-0.4,0.2-0.4,0.5
		c-0.2,0.7-0.4,1.6-0.7,2.5c-1.1-2.8-1.2-5.8,0.4-8.6c0.4-0.7-0.6-1.4-1-0.7c-1.7,3-1.9,9,0.3,12.5c0,0.1,0,0.2,0,0.3
		c-0.8-1-1.5-2-2.1-3.2c-0.8-1.8-1.2-3.8-1.2-5.8c0-0.7-1.2-0.9-1.2-0.1c0,3.4,1.2,9.7,4.9,10.9c0.2,0.1,0.4,0,0.5-0.2
		c0.2,0.1,0.5,0,0.7-0.2c0.2,0.1,0.4,0.2,0.6,0.3c-1.2,0.6-2.3,1.6-3.2,3.1c-2.1,1.5-4,3.9-5.6,6.6c-1.3-0.6-2.6-0.9-3.8-1.7
		c-1.2-0.8-2.2-1.7-3.3-2.6c-1.5-2.3-2.6-4.9-3.3-7.7c0.8-2.2,2-4.7,3.3-7.1c0.1,2.2,0.2,4.7,0.7,7.2c-2.4,3.7,2.1,10.2,6.2,10
		c0.5,0,0.7-0.6,0.3-0.9c-0.5-0.4-1-0.8-1.5-1.2c0-0.1,0-0.1,0-0.2c-0.6-0.8-1.1-1.5-1.5-2.3c0.4,0.4,0.9,0.8,1.3,1.2
		c1,0.9,2.4,1.9,3.8,1.8c0.3,0,0.5-0.5,0.2-0.7c-1.1-0.7-2.3-1.1-3.4-1.9c-1.1-0.8-2-1.7-3-2.6c-1.4-3.6-1.8-7.4-2.5-11.3
		c0-0.1-0.1-0.1-0.1-0.2c0.7-1.2,1.4-2.4,2.2-3.5c-1.4,5.8,0.7,14.5,5.4,16.1c0.3,0.1,0.7-0.2,0.4-0.5c-3.8-4-6.5-11.7-4.5-17.3
		c0.8-1.1,1.7-2.1,2.6-3c-0.9,2.9-0.7,6.5,0.5,8.5c0.3,0.6,1.3,0.3,1.4-0.3c0.3-2.2-0.2-4.3,0.1-6.5c0.2-1.7,1.1-3.1,1.5-4.7
		c0.2-0.2,0.5-0.3,0.7-0.5c0.2,0,0.5,0,0.7-0.1c8.2-3.6,19.7-0.4,26.1,5.3c0.4,0.4,0.8,0.8,1.2,1.2c-0.1,0-0.1,0-0.2,0
		c-1.1,0.5-3.9,2.5-5.6,4.4c-1.7,1.9-3.3,3.9-4.9,5.9c-1.3,1.8-2.7,3.6-3.2,5.7c-0.1,0.5,0.5,0.6,0.8,0.3c1.4-1.6,2.4-3.6,3.6-5.3
		c0.8-1.2,1.7-2.4,2.6-3.6c0,0.1,0.1,0.1,0.1,0.2c-0.4,0.4-0.8,0.8-1,1.3c-0.1,0.3,0.1,0.6,0.5,0.5c1-0.3,1.9-1.4,2.8-2
		c1.2-0.8,2.6-1.5,3.8-2.3c0.7-0.4,0.1-1.6-0.6-1.2c-1.2,0.8-2.5,1.5-3.7,2.3c0,0-0.1,0.1-0.1,0.1c0.5-0.9,1.4-1.6,2.3-2.2
		c1.3-1,2.7-1.8,3.5-3.3c0-0.1,0-0.1,0.1-0.2c3.2,3.6,5.4,8.1,7,12.7c-0.1,0.2,0,0.4,0.2,0.5c0.9,2.9,1.6,5.9,2.1,8.8
		c0.2,1.4,0.4,2.7,0.6,4.1c-0.3,0-0.5,0.4-0.2,0.6c0.1,0,0.2,0.1,0.2,0.1c0.1,1,0.2,2,0.3,3.1c-0.4-0.2-0.9-0.3-1.3-0.5
		C324.2,239.8,324.1,239.9,324.2,240z M316.6,276.9c-1.1-1.7-1.9-3.6-2.4-5.6c0.3,0.1,0.6,0.2,0.9,0.2c0.4,0,0.9-0.3,0.7-0.8
		c-0.2-0.4-0.3-0.8-0.5-1.1c-0.2-0.4-0.6-0.7-0.9-1c-0.5-0.6-0.9-1.3-1.2-2.1c0-0.1-0.1-0.2-0.1-0.2c0.5,0.5,1.1,1,1.6,1.5
		c1.5,1.4,3.3,2.9,5.4,3.3C319.1,273.2,317.9,275.1,316.6,276.9z M320.5,270.5c-2.1-1.4-4.2-2.8-6.2-4.5c-0.6-0.5-1.2-1-1.7-1.5
		c-2-3.6-6.1-6-7.5-10c1.5,0.7,3,1.1,4.5,0.9c0.8,0.9,1.7,1.8,2.6,2.5c0.1,0.2,0.2,0.3,0.4,0.4c0.3,0.2,0.6,0.4,1,0.6
		c0.7,0.5,1.4,0.9,2,1.3c0.1,0,0.2,0,0.2,0c0.5,0.2,0.9,0.5,1.4,0.7c1.9,1.3,4.1,2.3,6.1,2.3C322.6,265.7,321.7,268.2,320.5,270.5z
		 M292.3,261c-1.2,0.3-2.3,0.3-3.3,0.1c0.1-0.3,0-0.6-0.3-0.8c-0.4-0.3-0.8-0.5-1.2-0.7c-0.2-0.3-0.6-0.6-0.9-0.6
		c-2-1.3-3.3-2.6-3.7-5.7c-0.4-3.8,1-7.8,2.4-11.2c1.4-3.5,3.6-6.9,6.2-9.6c1.9-1.9,3.3-2.1,5.7-2.7c0.2,0,0.2-0.2,0.2-0.4
		c1.2,0.3,2.4,1,3.8,2.2c3.1,2.8,3.2,7.2,2.6,11C302.8,249.2,299.4,259,292.3,261z M289.1,288.8c-0.8-0.2-1.7-0.5-2.5-0.8
		c-0.5-2-0.7-3.9-0.5-6.2c0.1-1.4,0.3-2.7,0.4-4.1c0.4-1.1,0.6-2.3,0.8-3.5c0.4-2,0.7-4,1.3-6c0,0.1,0,0.2,0,0.2
		c-0.2,2.1-0.6,4.6,0.7,6.5c0,0.1,0.1,0.1,0.2,0.1c0.1,0.4,0.3,0.8,0.6,1.2c0,0,0,0,0,0c-0.1,1.1-0.1,2.1,0,3.2c0,0,0,0.1-0.1,0.1
		C288.6,282.4,287.6,286,289.1,288.8z M280.5,284.5c0.1-1.4,0.6-2.8,1-4.1c0.1-0.3,0.3-0.7,0.4-1c0,0,0,0,0,0.1
		c0,0.3,0.4,0.3,0.5,0.1c0.5-1.2,0.8-2.4,1.1-3.6c0.3-0.6,0.6-1.1,0.8-1.7c0.2-0.4,0-0.7-0.3-0.9c0.5-2.3,0.9-4.6,1.9-6.8
		c0.2-0.5-0.5-0.8-0.8-0.3c-1.2,2.4-2,5.1-2.6,7.8c-1.2,2-4.3,6.4-4.7,9.7c-0.4-0.2-0.7-0.5-1.1-0.7c-2.3-3.7-0.8-10.7,1-15.6
		c1.4-0.8,2.7-1.8,3.8-2.8c0.2-0.2,0-0.5-0.3-0.4c-1,0.6-2,1.2-3,1.8c0.4-0.9,0.7-1.7,1.1-2.4c0.2-0.4-0.5-0.9-0.8-0.4
		c-0.5,0.8-1.1,2.1-1.7,3.6c-1.1,0.6-2.3,1.1-3.4,1.5c0.5-1.3,1.4-2.3,2.7-2.9c0.3-0.1,0.3-0.4,0.2-0.7c0.3-0.2,0.6-0.5,0.9-0.8
		c1.6-1.3,3-2.5,5-3.2c0.3-0.1,0.5-0.3,0.5-0.6c0.3,0.3,0.5,0.5,0.9,0.8c0.2,0.2,0.4,0.4,0.7,0.5c-1.2,1.7-2.6,3.4-3.8,5.1
		c-1,1.4-3.2,4-2.1,5.8c0.2,0.3,0.5,0.3,0.7,0.2c0.6-0.1,0.9-0.3,1.2-0.9c0.8-1.6,1.7-3,2.7-4.4c1.1-1.5,2.1-3.1,3-4.7
		c1,0.5,2,0.8,3,1c-0.3,0.8-0.5,1.7-0.7,2.6c-0.1,0-0.2,0-0.3,0.1c-0.9,2-1.4,4.1-1.9,6.3c-0.1,0.5-0.2,1-0.4,1.5
		c-0.2,0-0.4,0.1-0.4,0.3c-0.2,3.4-2.1,8.9-1.1,12.8c-1.4-0.6-2.8-1.3-4.2-2C280.5,285,280.5,284.8,280.5,284.5z M291.4,229.9
		c-3.7,3.4-7.4,10.1-8.4,12.1c0-0.1,0-0.1,0-0.2C284.7,237.8,287.9,231.6,291.4,229.9z M281.6,246.5c0.1-1,0.3-1.8,0.5-2.6
		c0.2-0.5,0.4-1,0.6-1.7c0,0,0.1-0.1,0.1-0.1c0,0,0,0,0,0c0,0.1-0.1,0.1-0.1,0.2C282.4,243.4,281.9,244.8,281.6,246.5z M306.3,248.7
		c0.1,1.2,0.4,2.3,1,3.5c-0.9-0.2-1.7-0.4-2.6-0.6c0.4-1.1,0.8-2.1,1.1-3.2C306,248.5,306.1,248.6,306.3,248.7z M315.4,235.6
		c1-0.3,2-0.4,3.1-0.7c-1.4,0.7-2.9,1.2-4.4,1.1C314.5,235.9,314.9,235.8,315.4,235.6z M285.6,188.7c1.6,0.3,3.3-0.2,4.9-0.6
		c1.5-0.4,4.3-1.1,5.4-2.6c0.2,0.5,0.4,0.9,0.7,1.4c-1,0.2-2,0.7-2.9,1.1c-0.6,0.2-5.3,2.2-6.9,2.8C286.4,190,286,189.3,285.6,188.7
		z M280.1,180.4c0.1,0,0.1,0,0.2,0c3.5-0.2,8.4-0.5,11.6-2.6c0.4,0.8,0.9,1.5,1.3,2.3c-1,0.2-2,0.6-3,1c-2.5,1-5,2-7.5,3.1
		C281.8,182.9,280.9,181.7,280.1,180.4z M271.3,166.7c1.3,0,2.7-0.6,3.8-0.9c2.3-0.7,5.6-1.2,7.5-2.8c0.3,0.4,0.6,0.8,0.9,1.3
		c-0.1,0-0.1,0-0.2,0c-1.4,0.6-2.7,1.5-4.1,2.2c-1.5,0.7-3.1,1.3-4.7,1.8c-0.8,0.2-1.3,0.3-1.8,0.6
		C272.1,168.2,271.7,167.4,271.3,166.7z M268.6,162.1c1.8-0.1,3.8-1,5.5-1.5c1.8-0.5,3.9-0.7,5.6-1.6c0.6,0.8,1.2,1.7,1.8,2.5
		c-2.2,0.2-4.4,1.5-6.4,2.1c-1.3,0.5-3.4,0.7-4.7,1.7C269.8,164.3,269.2,163.2,268.6,162.1z M277.1,169.3c1.9-0.5,6-1.5,7.4-3.4
		c0.3,0.5,0.6,1,1,1.5c-3.4-0.1-7.8,3.7-11,4.6c-0.4-0.7-0.8-1.3-1.3-2C274.5,170.3,276.2,169.6,277.1,169.3z M278.2,172.4
		c1.6-0.6,3.1-1.4,4.7-2c1.2-0.5,2.5-0.7,3.8-0.9c0.4,0.7,0.8,1.4,1.3,2.1c-1.3,0-2.6,0.9-3.8,1.5c-1.1,0.5-2.2,1-3.4,1.4
		c-1.3,0.5-2.6,0.5-3.6,1.5c-0.1,0.1-0.1,0.1-0.1,0.2c-0.7-1.1-1.4-2.2-2.1-3.3C276,173.1,276.8,172.9,278.2,172.4z M283.1,175.9
		c1.6-0.6,4.7-1.3,5.8-2.9c0.6,1,1.2,2,1.8,3c-1.1,0.4-2.2,0.9-3.3,1.2c-2.4,0.7-4.8,1.4-7.3,1.9c-0.3,0.1-0.5,0.3-0.6,0.6
		c-0.7-1-1.3-1.9-2-2.9C279.3,177.5,281.5,176.5,283.1,175.9z M287.1,184.1c1.8-0.6,3.5-1.2,5.3-1.7c0.6-0.2,1.2-0.3,1.8-0.4
		c0.3,0.6,0.6,1.1,0.9,1.7c-1.5,0.3-3.1,1.6-4.4,2.2c-1.8,0.8-3.8,1.3-5.7,1.6c-0.6-0.9-1.1-1.7-1.7-2.6
		C284.4,184.9,285.6,184.5,287.1,184.1z M297.7,191.7c-1.2-1.4-3.4,0-4.6,0.5c-1.3,0.6-2.8,1.5-4.3,1.9c-0.4-0.7-0.8-1.4-1.2-2.1
		c1.7-0.1,3.4-0.8,5-1.4c1.2-0.4,2.4-0.9,3.6-1.2c0.5-0.1,0.9-0.2,1.4-0.3c0,0,0,0,0.1,0c1.4,3.2,2.6,6.5,3.4,9.7
		c-1.2-0.3-2.5-0.4-3.7-0.5c0.6-0.5,1-1.1,1.2-1.9c0.1-0.4-0.3-0.9-0.7-0.9c-1.1-0.1-1.9,0.5-2.8,1.1c-1.3,0.9-2.7,1.5-4.3,1.5
		c0,0-0.1,0-0.1,0c-0.3-0.7-0.6-1.3-0.9-2c1.1-0.3,2.2-0.7,3.3-1.1c0.8-0.3,1.7-0.7,2.5-0.9c0.7-0.2,1.4-0.2,1.9-0.7
		C298,193,298.1,192.2,297.7,191.7z M304.3,199c0-0.2,0-0.4,0-0.6c-0.2-0.9-0.5-1.9-0.8-2.8c0.5,1.1,1,2.3,1.4,3.4
		C304.7,199,304.5,199,304.3,199z M290,158.5c-1.5,1.2-3.5,3.4-2.6,5.3c0.1,0.3,0.5,0.3,0.6,0c0.4-0.7,0.4-1.5,0.8-2.3
		c0.4-0.8,1.1-1.4,1.8-2c1.4,2.6,2.6,5.2,3.8,7.7c2.7,5.5,2.8,11.8,4.7,17.6c-3-6-6.6-11.8-9.8-17.1c0.3-0.6,0.6-1.1,0.9-1.7
		c0.4-0.8-0.7-1.4-1.1-0.6c-0.2,0.4-0.4,0.8-0.5,1.1c-1.3-2.1-2.7-4.2-4.1-6.1c0.7-0.3,1.4-1,1.7-1.3c0.7-0.6-0.3-1.7-1-1
		c-0.3,0.3-1,0.7-1.5,1.2c-1-1.5-2.1-2.9-3.2-4.3l0,0c0.5-0.3,0.7-1.1,1.1-1.6c0.5-0.7,1.2-1.2,1.9-1.6c0.8-0.5,0.1-1.8-0.6-1.3
		c-0.8,0.6-1.6,1.2-2.3,2c-0.4,0.4-0.8,1-0.9,1.6c-1.8-2.3-3.6-4.5-5.6-6.6c0.2-0.2,0.4-0.4,0.6-0.6c0.6-0.6,1.2-1.2,1.8-1.8
		c0.5-0.5-0.2-1.4-0.8-0.9c-0.6,0.6-1.2,1.2-1.8,1.8c-0.2,0.2-0.4,0.4-0.6,0.6c-0.2-0.2-0.4-0.5-0.6-0.7c1.4-1.1,2.7-2.4,4.2-3.4
		c1.1,1.3,2.2,2.6,3.4,3.9c-1.5,1-3.9,2.5-3,4.4c0.1,0.3,0.4,0.3,0.6,0c0.4-0.7,0.8-1.5,1.4-2.1c0.6-0.5,1.3-0.9,1.9-1.3
		c0.7,0.8,1.5,1.5,2.3,2.3C286.1,152.2,288.1,155.3,290,158.5z M264.5,155.4c3.1-0.8,6.1-1.7,9-2.9c0.3-0.1,0.4-0.3,0.5-0.6
		c0.5,0.6,0.9,1.1,1.4,1.7c-1.2,0.1-2.4,0.7-3.6,1.1c-2.1,0.7-4.1,1.8-6,2.8C265.4,156.7,265,156,264.5,155.4z M257.5,146.5
		c3-1.1,6.1-2,9.2-3.1c0.3,0.3,0.5,0.5,0.8,0.8c-1.7-0.1-3.8,1.2-5,1.7c-1.1,0.4-2.1,0.8-3.1,1.3c-0.1,0.1-0.5,0.2-0.8,0.3
		C258.1,147.2,257.8,146.9,257.5,146.5z M263.8,147.9c1.5-0.5,4-0.8,5-2.1c0.5,0.6,1.1,1.2,1.6,1.8c-1.8-0.1-3.8,1.1-5.5,1.7
		c-1.2,0.4-2.5,0.9-3.7,1.6c-0.5-0.6-1-1.2-1.5-1.8C261.1,148.7,262.4,148.3,263.8,147.9z M262.5,152.4c1.1-0.4,2.2-0.9,3.3-1.3
		c1.8-0.6,4.3-0.8,5.5-2.4c0,0,0-0.1,0.1-0.1c0.6,0.6,1.1,1.3,1.7,2c-1.6,0-4.3,1.3-5,1.5c-1.5,0.6-3,1.1-4.6,1.6
		C263.1,153.2,262.8,152.8,262.5,152.4z M201.5,114.1c2.4-0.2,4.7-0.2,7.1-0.2c-0.1,0.8-0.2,1.8,0.2,2.4c0.1,0.2,0.4,0.1,0.5,0
		c0.2-0.4,0.2-0.8,0.2-1.3c0-0.4,0-0.7,0-1.1c1.6,0,3.1,0.1,4.7,0.3c0,0.4,0,0.7,0,1.1c0,0.5-0.1,1,0.1,1.5c0.1,0.2,0.5,0.3,0.5,0
		c0.2-0.5,0.1-0.9,0.1-1.4c0-0.4,0-0.8,0-1.2c4,0.4,8,0.9,12,1.6c0.1,0.4,0.2,0.9,0.3,1.3c0.1,0.5,0.2,0.9,0.6,1.2
		c0.2,0.1,0.5,0.1,0.5-0.2c0.1-0.5-0.2-1-0.4-1.5c-0.1-0.2-0.2-0.5-0.2-0.7c5.2,0.9,10.3,2,15.3,3c4.3,0.9,8.3,2.2,12.1,3.9
		c-0.2,0.5-0.5,1.1-0.4,1.7c0,0.3,0.4,0.4,0.6,0.2c0.4-0.4,0.5-1,0.7-1.5c1,0.5,1.9,1,2.9,1.5c-0.7,0.8-1.4,1.7-1.6,2.7
		c-0.1,0.3,0.3,0.5,0.5,0.3c0.7-0.5,1.1-1.3,1.5-2c0.1-0.2,0.3-0.4,0.4-0.5c1.2,0.7,2.4,1.5,3.5,2.3c-0.1-0.1-0.3-0.1-0.5,0.1
		c-0.8,0.5-1.5,1.1-2.2,1.8c-0.5,0.6-1.5,1.4-1.3,2.2c0,0.1,0.2,0.2,0.3,0.2c0.7-0.1,1.2-1.1,1.7-1.6c0.6-0.7,1.4-1.3,2.2-1.8
		c0.3-0.2,0.3-0.5,0.1-0.7c2.7,2,5.2,4.3,7.5,6.9c-1.7,0.9-5.7,3.3-3.6,5.1c0.2,0.2,0.5,0,0.5-0.2c-0.2-0.9,0.6-1.7,1.2-2.2
		c0.8-0.7,1.7-1.2,2.7-1.7c1,1.2,1.9,2.4,2.7,3.6c0.5,0.8,1.1,1.6,1.7,2.3c-0.9,0.6-1.7,1.3-2.5,2c-0.5,0.5-1.2,1-1.5,1.7
		c-1-1.1-2-2.1-3-3.2c0.1-0.1,0.1-0.2,0.1-0.3c0-0.2,0-0.4-0.1-0.6c-0.1-0.3-0.5-0.6-0.9-0.6c-0.2,0-0.4,0-0.6,0
		c-1-1.1-2-2.1-3.1-3.1c-0.2-0.2-0.4-0.4-0.6-0.5c0.5-0.7,1-1.4,1.5-2c0.7-0.8,1.4-1.6,2.2-2.4c0.4-0.4-0.1-1.2-0.6-0.7
		c-1.3,1.3-3,2.8-3.8,4.6c-0.7-0.7-1.4-1.3-2.1-2c0.5-0.3,0.9-1,1.2-1.4c0.7-0.8,1.5-1.4,2.3-1.9c0.6-0.4-0.1-1.3-0.7-0.9
		c-0.8,0.5-1.5,1.1-2.2,1.8c-0.4,0.4-1.2,1.1-1.3,1.8c-1.2-1-2.3-1.9-3.6-2.8c0-0.3-0.2-0.5-0.5-0.6c-0.1,0-0.3,0-0.4-0.1
		c-6.6-4.5-13.9-7.7-21.7-9.7c-0.1-0.2-0.2-0.3-0.5-0.3c-0.3,0-0.5-0.1-0.8-0.1c-0.1-0.1-0.2-0.2-0.4-0.2c-0.4,0-0.9,0-1.3-0.1
		c-10.2-2.2-21-2.7-31.4-1.9c-6.4,0.5-12.9,1.6-19.3,3.1c0.1-0.1,0.3-0.2,0.2-0.4c-0.4-0.8-1.3-1.4-2-2c-0.7-0.5-1.5-0.9-2.2-1.3
		C185.1,115.9,193.3,114.7,201.5,114.1z M243.7,135.7c1.1-0.2,2.1-0.5,3.2-0.8c2.4-0.6,5.5-1,8-2c0.4,0.3,0.8,0.6,1.2,0.9
		c-1.1,0.2-2.3,0.7-3.4,1c-2.2,0.6-5.1,1-7.4,1.9C244.8,136.4,244.3,136,243.7,135.7z M230.2,128.9c1.9-0.2,3.9-1.2,5.8-1.6
		c1.9-0.4,3.5-0.6,4.9-1.7c0.8,0.3,1.7,0.6,2.5,0.9c-1.7,0.2-3.3,0.8-4.9,1.2c-2.1,0.6-4.1,1.1-5.9,2.1
		C231.8,129.6,231,129.2,230.2,128.9z M221.8,123.4c0.1,0,0.3-0.1,0.4-0.1c1.1,0,2.2,0,3.3-0.1c-1.3,0.8-2.5,1.7-3.1,2.9
		c0,0.1,0,0.2,0.1,0.2c2,0,3.8-1.1,5.7-1.8c1.2-0.4,2.5-0.9,3.8-1.4c0.6,0.1,1.2,0.3,1.8,0.4c-1.4,0.3-2.8,0.8-4.3,1.4
		c-1.5,0.6-3.4,1.1-4.7,2.2c-2.1-0.7-4.3-1.3-6.5-1.9c0.2-0.1,0.4-0.3,0.6-0.5C219.8,124,220.8,123.7,221.8,123.4z M201.2,121
		c-0.2,0-0.3-0.1-0.5-0.1c3.8-0.4,7.7-0.5,11.5-0.4c-0.9,0-1.9,0.1-2.8,0.1C206.9,120.7,204.1,120.8,201.2,121z M236.2,124.2
		c0.5,0.1,1.1,0.3,1.6,0.5c-1.2,0.3-2.4,0.7-3.6,1c-0.4,0.1-0.8,0.2-1.3,0.4C234.1,125.6,235.1,125,236.2,124.2z M231.1,126.6
		c0.1,0,0.2-0.1,0.3-0.1c-0.9,0.4-1.7,0.9-2,1.7c-0.1,0.1,0,0.3,0,0.4c-0.6-0.2-1.2-0.4-1.8-0.7C228.8,127.5,230,127,231.1,126.6z
		 M239,129.7c2.5-0.5,5-0.6,7.2-1.9c0.3,0.1,0.5,0.2,0.8,0.4c-1.7,0.3-3.3,0.8-4.7,1.2c-1.7,0.5-4.1,1.1-5.7,2.5
		c-0.7-0.4-1.4-0.7-2.2-1.1C236.1,130.4,237.5,130,239,129.7z M243.7,131.3c2.3-0.5,4.9-0.3,7.2-1.1c0.4,0.2,0.7,0.5,1.1,0.7
		c-1.1,0.3-2.2,0.7-3.2,1.1c-2.4,0.8-4.9,1.4-7.4,2.3c-0.7-0.4-1.5-0.9-2.3-1.3C240.7,132.4,242.2,131.7,243.7,131.3z M115.6,294.4
		c-5.4-6.6-8-15.2-10.4-23.2c-1.5-5-2.2-10.2-2.4-15.4c0-0.4-0.1-1.2-0.2-2.1c2.2-8.1,3.1-15.4,7-23.1c5-9.8,13.2-14.5,23.2-8.1
		c7.2,4.5,11.4,15.9,14.9,23.3c4.3,9.2,6,19.3,5,29.4c-1,9.8-6.2,17.7-13.3,24.2C131,307.1,121.7,301.9,115.6,294.4z M153.4,305
		c0.5-0.2,1-0.5,1.4-0.7c2.1-1.2,4-2.6,5.8-4.2c0.7,0.2,1.6,0,2.5-0.2c2.1-0.6,5.2-1.7,6.8-3.3c0.8-0.8,0.2-2.2-1-2.1
		c-2,0.2-3.9,2-5.9,3c1.2-1.4,2.4-2.9,3.4-4.5c0.9,0.2,2,0.1,2.8,0c3-0.6,6.9-2.3,8.3-5.1c0.3-0.6-0.3-1.1-0.9-1c-2.7,0.6-6,3.9-9,4
		c1.1-1.9,2-4,2.7-6c2.5,0.3,8.8-4.2,9.9-5.2c0.5-0.5,0.2-1.3-0.5-1.3c-2.3,0-4.3,1.7-6.1,2.9c-0.9,0.6-1.7,1.2-2.7,1.6
		c1.2-3.7,2.1-7.6,2.6-11.5c0.4,0.3,0.8,0.6,1.2,0.8c1.7,1,3.6,1.5,5.4,0.5c0.5-0.3,0.3-1.2-0.3-1.3c-2.3-0.3-4-1.1-6-2.1
		c0,0-0.1,0-0.1,0c0.3-2.3,0.4-4.6,0.4-6.9c1.2,0.1,2.3,0.1,3.4,0.2c1,0.1,1.8,0,2.6-0.2c-1.1,1.2-2.3,2.3-3.7,3.4
		c-0.3,0.2-0.2,0.6,0.2,0.7c2.7,0.1,4.9-1.6,6.5-3.7c0.7-1,1.3-2.1,2-3.2c0.2-0.4,0.5-0.8,0.8-1.1c0,0.1,0,0.2,0,0.4
		C186.8,277.9,175.2,306,153.4,305z M169.8,221c-0.2,0-0.4-0.1-0.7-0.1c-1.3-0.1-2.8,0-3.4,1.2c-0.2,0.3,0,0.8,0.2,1
		c0.8,0.6,1.5,0.4,2.4,0.2c1.3-0.2,2.6,0.1,3.9,0.4c4.5,5.3,8.1,11.1,10.5,17.3c-0.3-0.1-0.7-0.1-1,0.2c-0.9,1.2-1.6,2.1-3,2.7
		c-1.2,0.5-2.4,0.7-3.6,1.2c-0.6,0.3-0.7,1.1,0,1.4c1.8,0.8,3.6,0.1,5.2-0.8c1.3-0.8,2.6-1.9,2.9-3.4c0.5,1.4,1,2.9,1.3,4.3
		c-0.1,0-0.2,0-0.4,0c-1.9,0.6-3.4,2-4.8,3.5c-0.8,0.9-1.6,1.8-2.4,2.8c-0.5,0.7-1.1,1.3-0.8,2.2c0.1,0.2,0.3,0.4,0.5,0.5
		c1.6,0.2,2.5-2.1,3.3-3.2c1.2-1.7,2.6-3.5,4.6-4.3c0.1,0,0.1-0.1,0.1-0.1c0.6,2.5,1,5,1.2,7.6c-1.5,0.8-2.6,2.7-3.5,4
		c-0.3,0.4-0.6,0.8-1,1.2c0,0,0,0-0.1,0c-1.4-0.4-2.3-0.5-3.7-0.4c-1.1,0.1-2.3,0.1-3.4,0.2c0-0.4,0-0.7,0-1.1
		c-0.1-6.7-2.2-12.9-4.9-18.9c2.5,0.2,4.8-0.5,6.7-2.3c0.5-0.5,0.2-1.4-0.6-1.1c-2.3,0.8-4.6,1.7-7,1.5c-0.1-0.2-0.2-0.5-0.3-0.8
		c-0.4-1-0.9-2-1.3-2.9c2.1-0.4,4-0.7,6.2-0.8c1.7-0.1,3.5-0.2,4.7-1.4c0.3-0.3,0.2-0.9-0.2-1.1c-1.8-0.6-4.1,0-5.9,0.3
		c-1.8,0.3-3.8,0.6-5.3,1.7c-2.8-6.6-5.6-13-11.8-17.1c0.3-0.2,0.6-0.3,0.9-0.4c1-0.4,1.8-0.8,2.9-1.1c0.9-0.2,1.7-0.1,2.5-0.4
		c0.4-0.1,0.5-0.6,0.2-0.9C164.5,216,167.4,218.6,169.8,221z M152,210C152,210,152,210,152,210C152,210,152,210,152,210
		C152,210,152,210,152,210z M155,211.6c0.3,0,0.6-0.3,0.6-0.5c1.8,0.7,3.6,1.6,5.2,2.6c-1.5-0.6-3.3-0.3-4.8,0.1
		c-1.1,0.3-2.6,0.8-3.7,1.6c-1-0.5-2-1-3-1.5c0.6-0.4,1.1-0.8,1.8-1.2C152.3,212,153.7,211.8,155,211.6z M148.7,209.8
		c-1.3,0.3-2.5,0.8-3.3,1.7c-0.3,0.4,0,1,0.5,1c1,0,1.8-0.5,2.7-0.9c0.1-0.1,0.3-0.1,0.4-0.2c-0.7,0.5-1.2,1.1-1.6,1.8
		c-1.7-0.6-3.4-1.2-5.2-1.5C144.3,210.4,146.5,209.8,148.7,209.8z M139,213.5c0.2,0.1,0.4,0.2,0.6,0.1c5.4,1,11,3.7,15,6.2
		c6.1,3.9,8.2,13.4,11.1,19.6c3,6.5,5.3,12.7,5.8,20c0.2,3,0.1,6.1-0.1,9.2c-0.4,0.1-0.6,0.5-0.9,0.8c0,0,0,0.1,0,0.1
		c0.2,0,0.5,0.2,0.8,0.3c-0.8,7.1-3,14.1-6.6,20.2c-0.2,0.1-0.3,0.3-0.3,0.5c-2.1,3.5-4.7,6.6-7.7,9.2c-6.8,5.8-14.9,7.2-22.8,5.8
		c0.4-0.1,0.8-0.2,1.1-0.4c9.2-3.7,15.9-13.7,19-22.7c3.9-11.7,1.6-24.8-2.8-36c-4-10.3-9.7-23.2-20-28.5c-3.5-1.8-7-2.2-10.2-1.6
		c3.5-1.2,8.3-1.9,10.8-2.6C134,213.1,136.5,213.1,139,213.5z M118,216c-0.8,0.3-1.7,1.2-2.2,1.7c-0.9,0.8-2.3,1.9-2.9,3.1
		c-0.3,0.3-0.6,0.6-0.9,0.9c-9-25.4-0.6-55.4,16.1-75.8c4.1-5,8.8-9.2,13.8-12.8c-0.1,0.3-0.1,0.6,0.3,0.8c0.7,0.3,1.4,0.6,2,0.8
		c0.3,0.1,0.7-0.1,0.5-0.5c-0.4-0.9-1.4-1-2.2-1.4c-0.1,0-0.2-0.1-0.2-0.1c2-1.4,4-2.7,6.1-3.9c0.1,0,0.1,0.1,0.2,0.1
		c1,0.6,2.1,1.2,3.2,1.6c0.2,0.1,0.4-0.2,0.2-0.4c-0.7-0.9-1.7-1.4-2.8-1.8c1.8-1,3.7-2,5.6-2.9c0.8,0.2,1.5,0.8,2.3,1.1
		c0.2,0.1,0.6-0.1,0.4-0.4c-0.3-0.6-0.8-1-1.4-1.4c4.6-2.1,9.4-3.8,14.4-5.2c0.3,0.3,0.5,0.6,0.9,0.9c0.8,0.6,1.7,1.5,2.8,1.7
		c0.3,0,0.5-0.3,0.3-0.5c-0.5-0.8-1.3-1.2-2-1.7c-0.3-0.2-0.6-0.5-1-0.7c1.6-0.4,3.2-0.9,4.8-1.3c0.6,0.6,1.2,1.2,1.9,1.7
		c0.8,0.6,1.5,1.5,2.4,1.9c0,0,0.1,0,0.1,0c-17.1,4.2-33.6,12.3-45.4,24.8c-16.4,17.3-21.6,44.5-13,66.5c0.4,1.1,2,0.4,1.6-0.7
		c-0.5-1.5-0.9-3.1-1.3-4.6c0.3,0.2,0.7,0.3,1.1,0.1c0.5-0.3,1.1-0.5,1.6-0.8c0.3,1.9,0.7,3.9,1.4,5.6
		C123.6,213.3,120.2,214.5,118,216z M122.6,206c-0.3-1.5-0.6-3-0.8-4.6c0.5-0.1,0.9-0.1,1.4-0.1c0.6,0,1.3,0.1,1.9,0
		c0.1,1,0.2,2,0.3,3c-0.1,0.1-0.3,0.1-0.4,0.2c-0.6,0.3-1.2,0.6-1.8,1C122.8,205.6,122.7,205.8,122.6,206z M123.1,199.4
		c-0.6,0-1.1,0.1-1.7,0.2c-0.2-1.2-0.3-2.4-0.3-3.7c0.2,0,0.5,0.1,0.7,0.1c0.8,0,1.9,0,2.6-0.5c0.1,1.3,0.2,2.5,0.4,3.8
		C124.3,199.3,123.7,199.3,123.1,199.4z M124.4,194.2c-0.7-0.2-1.3,0.1-2,0.1c-0.5,0-0.9-0.1-1.3-0.1c-0.1-1.2-0.1-2.4-0.1-3.6
		c0.1,0.1,0.3,0.1,0.4,0.1c0.7,0.2,2,0.2,2.3-0.6c0.3-0.7-0.2-1.1-0.9-1.1c-0.5,0-0.8,0.2-1.3,0.2c-0.1,0-0.3,0-0.4,0
		c0-1.3,0.1-2.6,0.2-3.8c0.2,0.1,0.4,0.2,0.6,0.2c0.7,0.2,1.2-0.2,1.8-0.6c0.4-0.3,0.1-1-0.4-0.8c-0.4,0.1-0.9,0.1-1.3,0.3
		c-0.2,0.1-0.4,0.2-0.6,0.3c0.2-1.7,0.4-3.5,0.7-5.2c0.2,0.1,0.4,0.1,0.5,0.1c0.4,0.1,0.7,0.3,1.1,0.4c0.2,0.1,0.4,0.1,0.6,0.1
		c0,0.1,0,0.1,0,0.2C123.8,185.2,124,189.7,124.4,194.2z M124.3,178.8c-0.6-0.3-1.4-0.4-2-0.4c0.2-0.7,0.3-1.5,0.5-2.2
		c0,0,0,0,0.1,0c0.4,0,0.4-0.6,0.1-0.7c0.5-1.8,1-3.7,1.6-5.5c0,0.1,0.1,0.1,0.1,0.2c0.2,0.2,0.4,0.2,0.7,0.1
		c0.4-0.1,0.7-0.4,0.8-0.8c0.1-0.3-0.1-0.6-0.4-0.5c-0.3,0.1-0.5,0-0.7,0c-0.1,0-0.1,0-0.2,0c0.6-1.6,1.3-3.2,2-4.8
		c0.1,0.1,0.1,0.1,0.2,0.2c0.4,0.2,0.8,0.2,1.1,0.1C126.2,169,124.9,173.7,124.3,178.8z M135.9,151.5c-2.7,3.7-5.1,7.5-7,11.4
		c0,0,0,0,0,0c-0.2-0.3-0.6-0.4-0.9-0.2c-0.2,0.1-0.3,0.2-0.5,0.2c2.9-6,6.6-11.5,11.3-16.5c6.7-7.1,15.3-12.4,24.5-16.3
		c-0.5,0.3-1,0.5-1.4,0.8C152.3,136.2,142.4,142.7,135.9,151.5z M194.5,121.9C194.5,121.9,194.5,121.9,194.5,121.9
		C194.5,121.9,194.5,121.9,194.5,121.9C194.5,121.9,194.5,121.9,194.5,121.9z M209.1,122.9c0.6-0.1,1.2-0.1,1.8-0.1
		c2.2-0.1,4.6,0.1,7,0.3c-0.5,0.5-0.9,1.1-1.1,1.7C214.3,124.1,211.7,123.5,209.1,122.9z M253.1,142.5c0.4-0.1,0.7-0.2,1.1-0.3
		c2.5-0.8,4.9-0.7,7.5-1.1c0.7-0.1,1.1-1.3,0.2-1.6c-3.2-1.1-7,0.3-10.1,1.9c-1.3-1.1-2.7-2.1-4.2-3.1c1.2-0.2,2.5-0.6,3.6-0.9
		c1.8-0.5,3.5-0.9,5.3-1.3c0.8-0.2,1.5-0.2,2.1-0.3c2,1.7,3.9,3.5,5.9,5.4c0.1,0.1,0.1,0.1,0.2,0.2c-0.8,0.3-1.5,0.6-2.1,0.9
		c-2.1,0.9-4.1,2-6,3.2C255.5,144.5,254.3,143.5,253.1,142.5z M266.7,158.8c1.5-0.5,2.9-1,4.4-1.5c1.8-0.6,4.1-1,5.6-2.2
		c0.5,0.7,1.1,1.4,1.6,2.1c-1.3,0.2-2.6,0.7-3.9,1.1c-2,0.7-4.8,1.2-6.6,2.5c-0.3-0.6-0.7-1.2-1-1.8
		C266.7,158.9,266.7,158.8,266.7,158.8z M269.3,247.1c-1.4-0.5-2.7-1.1-4-1.8c0.5-2.1,1.1-4.2,1.7-6.3c1.4,1.6,3.2,2.6,5.5,2.7
		c0.5,0,0.6-0.6,0.1-0.7c-0.2-0.1-0.5-0.1-0.7-0.2c0.2-0.2,0.3-0.5,0.1-0.8c-0.3-0.4-0.5-0.8-0.8-1.1c-0.4-0.3-0.9-0.6-1.3-1
		c-0.8-0.6-1.4-1.4-1.9-2.3c0.6-1.7,1.2-3.3,1.8-5c0.5,2.4,2.2,4.5,4.7,5.3c0.3,0.1,0.4-0.3,0.2-0.5c-2.6-2-5-4.7-3.7-8.1
		c0,0,0,0,0,0c0.3-0.8,0.5-1.6,0.8-2.3c0,0,0,0,0-0.1c1,4.1,2.8,8.9,6.7,10.1c0.1,0,0.1,0,0.1,0c1.2,0.8,2.4,1.3,3.6,1.2
		c-0.9,1.7-1.7,3.4-2.3,5.1c-0.6-0.1-1.3-0.2-1.9-0.4c0.1,0,0.2,0,0.3-0.1c0.6-0.2,0.6-1.1,0.1-1.3c-1.2-0.5-2-0.9-2.5-2.2
		c-0.4-1.1-2-0.4-1.6,0.7c0.2,0.6,0.5,1.2,0.9,1.7c-1.1-0.6-2.2-1.3-3.2-2c-0.7-0.4-1.4,0.6-0.7,1c1.9,1.3,5.2,3.7,8.2,4.1
		c-0.3,0.9-0.5,1.7-0.7,2.5c-2.7-0.1-5.4-0.5-7.9-2c-0.5-0.3-1.1,0.4-0.6,0.8c2.5,1.6,5.3,2.5,8.2,2.4c-0.1,0.9-0.2,1.8-0.1,2.6
		c-2.4,0.1-4.5-0.8-6.6-2.2c-0.4-0.3-0.9,0.3-0.5,0.6c1.8,1.5,4.7,3.3,7.1,2.8c0.3,3.2,1.6,6.2,3.5,8.5c-0.1,0-0.2,0-0.2,0
		c-1.8,0.5-3.3,1.5-4.8,2.6c-1.4,1-3.3,1.9-4.3,3.3c-0.2,0.4-0.2,1,0.4,1.1c0.2,0,0.4,0,0.6,0c-0.7,0.7-1.2,1.6-1.6,2.6
		c-1.3,0.2-2.5,0.3-3.8,0c0.1-0.5,0.3-1,0.5-1.5c0.5-1.1,1-2.1,1.7-3.2c2-0.6,3.8-1.7,5.4-2.9c0.2-0.2,0.1-0.6-0.2-0.5
		c-1.3,0.5-2.7,1.2-4.2,1.8c0.2-0.4,0.5-0.8,0.7-1.2c0.3-0.6-0.5-1.2-0.9-0.6c-0.3,0.5-0.7,1-1.1,1.6c-0.1-0.3-0.5-0.6-0.9-0.3
		c-0.4,0.3-0.9,0.5-1.3,0.8c-0.1,0.1-0.3,0.2-0.4,0.4c0.6-1.7,1.2-3.4,2-5c2.3,0,4.6-0.3,6.7-0.8c0.3-0.1,0.2-0.6-0.1-0.6
		c-2,0-4,0.2-6,0.2c0.3-0.6,0.5-1.2,0.8-1.8c0.2-0.4-0.4-0.6-0.6-0.3c-0.4,0.7-0.7,1.4-1.1,2.1c-1.7,0-3.4-0.1-5-0.6
		c-0.1-1-0.1-2,0-3c2.1,1.1,4.7,1.4,7,0.9c0.3-0.1,0.2-0.6-0.1-0.6c-2.3,0.1-4.8-0.3-6.9-1.6c0-0.6,0.1-1.3,0.2-1.9
		c1.1,1,2.7,1.4,4,1.9c1.7,0.6,3.4,0.9,5.2,0.6c0.7-0.1,0.9-1,0.2-1.3c-1.4-0.7-2.8-0.9-4.3-1.2c-1.7-0.3-3.2-1.3-4.9-1.6
		c0.1-0.7,0.2-1.3,0.4-2c1.3,0.7,2.6,1.2,4,1.3C269.5,247.8,269.7,247.3,269.3,247.1z M268.7,274.9c-0.3-0.4-0.5-0.9-0.7-1.3
		c0-0.1,0-0.1,0-0.2c-0.2-1.4-0.2-2.5,0-3.7c1.2,0.3,2.4,0.3,3.6,0.2c-0.1,0.3-0.1,0.6-0.2,0.8C270.2,271.8,269.2,273.3,268.7,274.9
		z M266.1,263.3c-0.4-0.1-0.8-0.2-1.1-0.3c-0.3-1.7-0.5-3.4-0.6-5.2c0-0.2,0-0.4,0-0.5c1.4,0.4,2.8,0.6,4.3,0.7
		C267.7,259.7,266.7,261.5,266.1,263.3z M265.2,264.2c0,0,0.1,0,0.1,0c0,0-0.1,0-0.1,0.1C265.2,264.3,265.2,264.3,265.2,264.2z
		 M265.5,265.6c0,0.1,0,0.1,0,0.2C265.5,265.8,265.4,265.7,265.5,265.6C265.4,265.6,265.5,265.6,265.5,265.6z M266.8,265.5
		c0.2-0.1,0.4-0.1,0.6-0.2c0.4-0.1,0.8-0.3,1.2-0.6c-1,1.6-1.9,3.4-2.1,5c-0.1-0.4-0.3-0.9-0.4-1.4
		C266.3,267.4,266.5,266.4,266.8,265.5z M270.6,277.6c0.2-0.9,0.4-1.9,0.7-2.8c0.1,1.4,0.5,2.8,1,3.9c0.2,0.4,0.8,0.3,0.8-0.2
		c0-1.8-0.3-4.3-0.2-6.6c0.6-0.6,1.4-1.1,2.3-1.2c0.9-0.1,0.8-1.4-0.1-1.4c-0.6,0-1.3,0.1-1.9,0.4c0,0,0,0,0-0.1
		c1.1-0.3,2.2-0.7,3.3-1.3c-1.5,4.1-2.8,9.4-2,13C272.9,280.2,271.7,278.9,270.6,277.6z M290.2,289c0.1-0.1,0.2-0.2,0.2-0.4
		c0.2-1.4,0.3-2.7,0.5-4.1c0.5,1.3,1.2,2.6,2.1,3.7c0.2,0.3,0.8,0.1,0.6-0.3c-0.8-2.1-1.7-4.2-2.2-6.4c0.1-0.4,0.2-0.7,0.3-1.1
		c0.3-0.7-0.2-1.2-0.8-1.4c-0.2-2.1-0.1-4.3,0.7-6.4c0.1-0.4-0.3-0.7-0.6-0.5c0-0.6-0.1-1.2-0.1-1.8c0-0.3,0-0.6,0-1
		c0.3-1.4,0.8-2.8,1.3-4.2c0.2-0.6-0.6-1-0.9-0.5c0.1-0.3,0.2-0.6,0.2-0.9c0.8,0,1.6-0.1,2.4-0.3c-1.5,4.1-1.3,10,1.1,13.6
		c0.2,0.3,0.6,0.1,0.6-0.2c-0.5-4.8-2.4-9-0.3-13.8c0,0,0,0,0,0c0.1,0,0.2-0.1,0.3-0.1c-0.1,0.9-0.1,1.8,0.1,2.7
		c0.4,1.9,2.6,4.9,4.7,4.4c0.5,0.6,1,1.1,1.6,1.6c0.3,0.2,0.7-0.1,0.6-0.4c-1.6-3.2-4.6-5.9-4.3-9.8c0,0,0,0,0-0.1
		c0.5-0.4,0.9-0.8,1.4-1.2c0.6,3.8,4.1,7.5,6.9,9.6c0.3,0.2,0.8-0.1,0.5-0.5c-2.2-3-6.3-6.3-6.3-10.3c1.2-1.5,2.2-3.2,3-5
		c0.5,2.2,1.9,4.1,3.3,5.8c0.5,0.6,0.9,1.1,1.4,1.7c-0.3-0.2-0.6-0.4-1-0.5c-0.6-0.3-1,0.7-0.4,0.9c2.2,1,4,2.5,5.7,4.1
		c-0.7-0.3-1.8,0.4-1.5,1.4c0.3,0.9,0.7,1.7,1.2,2.5c0.1,0.1,0.2,0.3,0.3,0.5c0.4,2.7,1.3,5.3,3.1,7.3c-2.4,3-5.3,5.7-8.7,7.9
		c-0.7-0.6-1.4-1-2.1-1.7c-1.2-1.1-2.1-2.4-2.9-3.8c-1.3-2.2-2-4.6-3.2-6.8c-0.2-0.4-0.8-0.3-0.8,0.2c0.2,1.8,0.9,3.7,1.8,5.5
		c-0.2,0-0.3,0.1-0.4,0.3c-0.6,1.3-0.9,3.3-0.6,5.1c-2-3-1.8-6.8-0.9-10.2c0.2-0.7-0.8-1.1-1-0.4c-1.1,3.7-1.9,8.9,1.8,11.4
		c0.1,0.1,0.2,0.1,0.3,0c0.4,1.1,1,1.9,2.1,2.4c0.6,0.2,1.2-0.4,0.8-1c-1.3-2.2-2.2-4.1-1.6-6.7c0.4,0.7,0.7,1.3,1.1,1.9
		c0.9,1.4,2.5,4,4.4,4.5c-0.4,0.2-0.8,0.5-1.2,0.7c-1.3,0.7-2.6,1.3-4,1.7c-1.7-0.4-3.2-0.7-4.5-2c-1.3-1.3-1.7-3.3-2.1-5
		c-0.5-2-0.8-5.2-3.2-5.7c-0.1,0-0.1,0.1-0.1,0.1c2,2.3,1.7,6.2,2.7,9c0.8,2.1,2.2,3.8,4.2,4.3C295.4,289.7,292.8,289.6,290.2,289z
		 M309.8,287.6c11.3-6.8,16.4-19.9,18-33.3c1.1,0.2,2.3,0.1,3.2-0.5c0.3-0.2,0.1-0.7-0.2-0.6c-1,0-1.9,0.1-2.9,0
		c0.2-1.7,0.3-3.5,0.4-5.2c0.9,0.1,1.7,0.1,2.6-0.1c0.4-0.1,0.4-0.6,0-0.7c-0.9-0.2-1.7-0.2-2.6-0.3c0-1.7,0-3.3,0-5
		c1.2,0.1,2.5-0.1,3.6-0.7c0.2-0.1,0-0.4-0.1-0.3c-1.2,0.3-2.4,0.3-3.5,0.2c0-1-0.1-2-0.2-3c1.8,0.2,3.6,0.1,5.3-0.2
		c0.3-0.1,0.4-0.5,0-0.6c-1.8-0.3-3.6,0-5.4-0.1c-0.1-1.5-0.3-3-0.5-4.5c1.9,0.2,3.9-0.2,5.4-0.9c0.3-0.2,0.2-0.6-0.1-0.6
		c-1.7,0-3.7,0.5-5.5,0.4c-0.1-0.6-0.2-1.1-0.3-1.7c-0.1-0.8-0.3-1.6-0.5-2.5c1.5-0.2,2.9-0.6,4.3-1.1c0.3-0.1,0.2-0.6-0.1-0.5
		c-1.5,0.2-3,0.5-4.5,0.6c-0.2-0.8-0.5-1.6-0.7-2.4c2.2-0.2,4.5-0.9,6.3-1.9c1.8,8.3,2,17.9,1.6,25.4c0,0.6-0.1,1.1-0.1,1.7
		c-0.4-0.1-0.7,0.5-0.3,0.7c0.1,0,0.2,0.1,0.3,0.1c-0.2,1.7-0.4,3.4-0.7,5.1c-0.3,0.1-0.5,0.5-0.2,0.8c0,0,0,0,0,0
		c-0.6,2.7-1.3,5.4-2.3,8c-0.4,0.1-0.7,0.5-0.5,1c0,0.1,0,0.1,0.1,0.2c-1.5,3.9-3.3,7.6-5.5,11.1c-2.8,4.4-6.5,8-11,10.5
		C312.1,287.1,311,287.4,309.8,287.6z M334.3,269.5c-2.3,4.4-5.3,7-8.7,9.4c2.8-3.9,5-8.1,6.6-12.6c0.3-0.1,0.5-0.3,0.7-0.5
		c0.2-0.2,0.1-0.6-0.2-0.6c0,0-0.1,0-0.1,0c0.6-1.8,1.2-3.7,1.7-5.6c0.6,0,1.2,0,1.8,0c0.6,0,1.2,0,1.8-0.1
		C337.1,262.9,335.9,266.3,334.3,269.5z M339.6,247.5c-0.1,3.7-0.5,7.5-1.4,11.1c-1.1-0.4-2.4-0.3-3.5-0.3c0.1-0.5,0.2-1.1,0.4-1.6
		c0.1,0,0.2,0,0.3,0c1,0,2.8-0.1,3.4-1.1c0.1-0.1,0-0.4-0.1-0.5c-0.7-0.5-1.6-0.1-2.4,0c-0.3,0.1-0.6,0.1-0.9,0.1
		c0.3-1.4,0.5-2.9,0.7-4.4c1,0.2,2,0.3,2.8,0.2c0.3,0,0.3-0.4,0.1-0.5c-0.8-0.6-1.8-0.7-2.8-0.9c0-0.2,0.1-0.5,0.1-0.7
		c0.2-2.1,0.4-4.3,0.4-6.6c0.9,0.4,2,0.5,3,0.2C339.6,244.3,339.6,245.9,339.6,247.5z M339.2,237.6c-0.6,0.2-1.1,0.5-1.6,0.8
		c-0.7,0.3-0.2,1.4,0.5,1.1c0.4-0.2,0.8-0.4,1.3-0.6c0.1,1,0.1,1.9,0.2,2.8c-1,0.1-1.9,0.1-2.9-0.1c0-2,0-4-0.2-6.1
		c0.1,0.1,0.2,0.1,0.3,0.1c0.7,0,1.5,0,2.2,0C339,236.2,339.1,236.9,339.2,237.6z"/>
	<path class="st13" d="M270.1,142.1C270.1,142.1,270.1,142.1,270.1,142.1c0,0,0.1,0,0.1,0c0.3,0.1,0.6-0.2,0.8-0.4
		c0.5-0.5,1-1,1.6-1.5c0.6-0.6-0.3-1.6-0.9-1c-0.5,0.5-1,1-1.5,1.6C270,141,269.4,142,270.1,142.1z"/>
	<path class="st13" d="M220.1,116.7c0-0.3,0-0.7,0-1c0-0.1-0.1-0.1-0.1,0C220,116,220,116.3,220.1,116.7
		C220,116.7,220.1,116.7,220.1,116.7z"/>
	<path class="st13" d="M234.4,118.6c0.4,0.2,0.7,0.4,1,0.8c0.2,0.3,0.2,0.7,0.4,1c0.1,0.2,0.5,0.2,0.6,0c0.6-1.1-0.8-2.1-1.6-2.5
		C234.2,117.5,233.9,118.3,234.4,118.6z"/>
	<path class="st13" d="M186.6,119.9c0.3-0.1,0.2-0.4,0-0.5c-1.4-0.4-2.8-0.9-4-1.8c0,0-0.1,0-0.1,0.1
		C183.4,119,184.8,120.3,186.6,119.9z"/>
	<path class="st13" d="M208,230.6c-0.2,0.4-0.4,0.7-0.5,0.9c-0.1,0.3,0.1,0.7,0.3,0.8c0,0.1,0,0.2,0.1,0.3c0.2,1.9,0.8,3.8,1.9,4.8
		c0.8,0.8,1.7,0.8,2.4,0.4c0.1,0.1,0.3,0.2,0.4,0.1c0,0,0,0,0.1,0c0.1-0.1,0.2-0.2,0.2-0.3c0.1-0.2,0.2-0.4,0.3-0.6
		c0.6-0.6,1-1.4,1.3-2.1c1.2-3.1,0.8-5.5-0.5-8.5c-1-2.4-1.8-4.8-2.5-7.2c3.6-1.4,7.3-5.4,9.4-8.2c0.4-0.6,0.2-1.4-0.6-1.4
		c-2.5-0.1-4.8,0.4-7.2,0.8c-0.2,0-0.4,0-0.6,0.1c-1.4,0.3-2.8,0.5-4.2,0.6c-0.5,0-1,0.5-0.8,1c1.3,3.8,2,8,3.6,11.7
		c0.5,1.2,1.2,2.5,1.7,3.8C210,225.4,208.3,227.6,208,230.6z M209.6,232.9c0,0.2,0,0.3,0,0.5c0,0.3,0.2,0.6,0.5,0.7
		c-0.1,0.2-0.2,0.4-0.2,0.6c0,0,0,0.1,0,0.1c-0.3-0.6-0.5-1.3-0.6-1.9C209.3,232.9,209.4,232.9,209.6,232.9z M213.4,234.1
		C213.4,234.1,213.3,234.1,213.4,234.1c-0.2,0.1-0.2,0.1-0.3,0.2c0.1-0.1,0.2-0.3,0.4-0.4C213.4,233.9,213.4,234,213.4,234.1z
		 M210.1,235.5c0.1,0.1,0.2,0.1,0.4,0.1c0,0.2,0,0.3,0.1,0.5C210.3,235.9,210.2,235.7,210.1,235.5z M211.3,236.5
		c-0.1,0-0.1-0.1-0.2-0.1c0,0,0,0,0.1,0c0.3,0,0.5,0,0.7,0C211.7,236.5,211.5,236.5,211.3,236.5z M218,211.9
		c-0.1-0.1-0.1-0.3-0.1-0.6c0.3,0,0.5,0,0.8-0.1C218.4,211.4,218.2,211.7,218,211.9z M215.9,211.8c-0.1,0.1-0.2,0.2-0.3,0.3
		c0-0.1,0-0.2-0.1-0.3c0-0.1-0.1-0.1-0.1-0.2c0.2,0,0.5-0.1,0.7-0.1C216,211.6,215.9,211.7,215.9,211.8z M212.7,212.1
		c0.1,0.3,0.1,0.5,0.2,0.8c0,0.1,0,0.2,0,0.3c0,0.1,0,0.2,0,0.3c-0.1-0.4-0.3-0.9-0.5-1.2C212.5,212.1,212.6,212.1,212.7,212.1z
		 M210.8,212.4c0.2,1,0.5,2.1,0.9,3.1c0,0.6-0.1,1.1-0.1,1c-0.8-1.1-0.7-2.7-1.2-4C210.5,212.5,210.6,212.5,210.8,212.4z"/>
	<path class="st13" d="M189.6,202.9c-6.7,2.5-14.7,4.4-20.2,9c0,0,0,0.1,0.1,0.1c5-4,14.5-5.5,20.6-8.1c8.4-3.6,17.3-2.6,26-0.8
		c6.8,1.4,13.6,2.2,20.5,2.1c8.3-0.2,15.6-4.7,24.2-3.8c0.3,0,0.5-0.4,0.2-0.6c-5.3-2-12.3,0.3-17.4,2c-10.2,3.5-22.1,0.1-32.3-1.8
		C203.8,199.8,196.6,200.3,189.6,202.9z"/>
	<path class="st13" d="M205.3,206.8c-3.6-1.6-22.5-1.5-21.3,5.2c0,0.1,0.2,0.1,0.2,0.1c5.5-6.4,13.5-3.9,21-4.7
		C205.5,207.4,205.6,207,205.3,206.8z"/>
	<path class="st13" d="M268,194.1c-7.4-1.6-14.6,0-21.9,1.2c-3.5,0.6-7,1.8-10.5,2.5c-4.1,0.7-8.2-0.8-12.4-0.6
		c-0.1,0-0.1,0.2,0,0.2c6.3,1.2,11.4,1.8,17.7,0.3c9-2.1,17.6-4.1,27-3.2C268.1,194.6,268.2,194.2,268,194.1z"/>
	<path class="st13" d="M278.6,200.6c0.3-0.1,0.1-0.5-0.2-0.5c-4.2-0.2-8.2-0.6-12.3-1.6c-0.4-0.1-0.6,0.6-0.1,0.7
		c2.2,0.6,4.4,1.1,6.7,1.5C274.5,201,276.8,201.5,278.6,200.6z"/>
	<path class="st13" d="M268.2,205.3c-1.3,0.1-2.7,0.3-4,0.5c-1.3,0.2-2.8-0.1-3.9,0.5c-0.1,0-0.1,0.2,0,0.2c1,0.5,2.4,0.4,3.5,0.3
		c1.6,0,3.1-0.1,4.6-0.9C268.7,205.8,268.7,205.2,268.2,205.3z"/>
	<path class="st13" d="M195.7,284.5C195.7,284.6,195.7,284.6,195.7,284.5c5.2-3.5,10.9-2.6,16.7-3.5c4.6-0.7,15.3,1.1,19.2-2.3
		c0.2-0.1,0-0.4-0.2-0.3c-4.1,1.3-9.7,0.7-14,0.8c-3.4,0.1-6.9,0.9-10.3,1.1C204.2,280.4,196.1,280.4,195.7,284.5z"/>
	<path class="st13" d="M259.8,279.1c0.3-0.2,0.1-0.6-0.3-0.5c-3.1,1-6.1,2.6-9.2,3.8c-4.2,1.5-8.3,1.6-12.5,2.5c0,0,0,0,0,0.1
		C244.2,286.6,254.8,283.2,259.8,279.1z"/>
	<path class="st13" d="M232.1,284.3c-9.8,2.8-18.5,4.4-28.7,4.6c-7.1,0.2-15.1,2.1-20.6,6.8c-0.1,0.1,0,0.3,0.2,0.2
		c8.1-4.3,16-5.9,25.1-6c8.2-0.1,16.9-1.3,24.2-5.2C232.6,284.6,232.4,284.2,232.1,284.3z"/>
	<path class="st13" d="M241.6,269.9c-1.4,0-2.8,0.5-4.1,0.8c-1.8,0.5-3.7,0.7-5.6,0.6c-0.5,0-0.7,0.8-0.1,0.8c3.2,0.4,7.2,0,10-1.6
		C242.1,270.3,241.9,269.9,241.6,269.9z"/>
	<path class="st13" d="M269.3,290.2c-6.7,2.6-12.8,0.8-19.7,0.8c-2.7,0-7,0-8.8,2.5c0,0,0,0.1,0.1,0.1c5.1-1.8,10.5-1.6,15.8-1
		c4.7,0.6,8.9,1,13-1.8C269.9,290.6,269.6,290.1,269.3,290.2z"/>
	<path class="st13" d="M253.6,221.4c0.4,0.1,0.6-0.5,0.2-0.7c-1.9-1-4.2-0.9-6.2-0.8c-0.9,0-4.5-0.1-4.7,1.2c0,0.2,0.1,0.3,0.2,0.4
		c0.8,0.1,2.9-0.4,4-0.4C249.2,221,251.5,221,253.6,221.4z"/>
	<path class="st13" d="M184.5,217.7c2.9-1.2,6.2-0.4,8.8-2.1c0.2-0.1,0.1-0.4-0.1-0.4c-5.6,0.5-10.6,1.7-15.4,4.7
		c-0.1,0,0,0.1,0,0.1C180.1,220.2,182.3,218.5,184.5,217.7z"/>
	<path class="st13" d="M186.7,228.4c1.2-0.1,2.3-0.3,3.5-0.4c1.1-0.1,2-0.2,3-0.6c0.3-0.1,0.2-0.6-0.1-0.6c-2-0.1-4.8,0.1-6.5,1.3
		C186.5,228.1,186.5,228.4,186.7,228.4z"/>
	<path class="st13" d="M239.7,248.4c-2,0.8-3.4,3-3,5.2c0.3,1.8,1.8,2.3,3.3,2.2c0,0,0.1,0.1,0.1,0.1c0.3,0.3,0.9,0.3,1.1-0.1
		c0.1-0.1,0.1-0.2,0.1-0.3c0.4-0.1,0.7-0.2,1-0.4c2.5-1.1,3.7-3.5,2.8-6c0,0,0-0.1,0-0.1c0-0.2-0.1-0.4-0.3-0.5c0,0,0,0-0.1-0.1
		c0,0,0,0,0,0c-0.1-0.1-0.3-0.2-0.5-0.2c-1-2.7-1.8-5.4-2.8-8.1c-0.4-1.2-1.8-6.1-3.2-8c-0.5-1-1-1.9-1.4-2.9
		c-0.1-0.3-0.6-0.5-0.8-0.4c-1.5,0.6-3,1.4-4.5,1.9c-2.3,0.8-5,0.6-7.4,1.1c0-0.1,0-0.2-0.1-0.3c0-0.2-0.4-0.2-0.5,0
		c0,0.2-0.1,0.5-0.1,0.7c0,0,0,0.1,0,0.1c-0.4,4.3,1.2,8.7,2.3,12.9c-1.2-0.9-2.7-0.8-3.9,0.1c-3.7,0.9-4.1,7.2-0.2,8.3
		c2.1,0.6,4.5-1.2,5.4-2.9c0.3-0.5,0.4-1.1,0.4-1.7c0.2-0.1,0.3-0.3,0.3-0.6c-0.4-2.8-1.1-5.5-1.7-8.2c1.2-0.1,2.3-0.3,3.5-0.5
		c0.2,0.1,0.5,0,0.7-0.1c2.9-0.6,5.7-1.2,8.6-0.9c0,0,0.1,0,0.1,0c0.8,1.8,1.4,3.6,1.9,5.5c0.3,1.1,0.6,2.8,1.2,4.1
		C241.4,248.1,240.4,248.1,239.7,248.4z M227.9,236.9c-0.1-0.2-0.3-0.2-0.3,0c-0.1,0.3-0.2,0.5-0.2,0.8c-0.6-1.3-1-3.8-1.4-4.9
		c1-0.1,2-0.1,3-0.2c0.1,0.8,0.2,1.9,0.5,2.9c0,0.2,0,0.4,0,0.6c-0.4-0.7-0.9-1.5-1.4-2.2c-0.6-1-2.1,0-1.5,0.9
		c0.8,1.2,1.5,2.3,2.2,3.6c-0.2,0-0.3,0.1-0.5,0.1C228.2,237.9,228,237.4,227.9,236.9z M234.5,232.3c-0.6-0.3-1.5,0.1-1.3,1
		c0.2,0.8,0.4,1.6,0.7,2.4c0,0-0.1,0.1-0.1,0.1c0,0.1,0,0.2-0.1,0.2c-0.7-1.2-1.2-2.5-1.7-3.8c0.8-0.2,1.5-0.5,2.2-0.9
		C234.4,231.7,234.4,232,234.5,232.3z M231.6,234.8c0.1,0.5,0.1,1,0,1.5c-0.1-0.2-0.2-0.4-0.3-0.6c-0.5-1-0.7-2.2-1.2-3.2
		c0.3,0,0.6,0,0.9-0.1C231.1,233.2,231.3,234,231.6,234.8z M230.4,238.1c-0.2-0.5-0.4-0.9-0.6-1.3c0-0.1-0.1-0.3-0.1-0.4
		c0.2,0.7,0.5,1.3,0.9,1.7C230.5,238.1,230.5,238.1,230.4,238.1z M232,235.9c0.3,0.6,0.6,1.2,1,1.7c-0.2,0-0.4,0.1-0.6,0.1
		C232.2,237.1,232.1,236.5,232,235.9z M224.4,246.3c-0.1,0-0.3,0.1-0.4,0.1c-0.1,0-0.3,0-0.4,0c-0.3,0-0.6,0.2-0.9,0.4
		C223.3,246.4,223.8,246.2,224.4,246.3z M224.5,233c0.2,0,0.4,0,0.6-0.1c-0.2,0.9,0.2,2.5,0.3,3c0.2,0.9,0.5,2.2,1.1,3.2
		c-0.2,0.1-0.3,0.2-0.5,0.3C225.4,237.2,224.9,235.1,224.5,233z M236.4,237.1c0-0.2,0.1-0.3,0.1-0.5c0.2,0,0.4,0,0.4-0.3
		c0.2-0.9-0.1-1.7-0.4-2.6c-0.3-1-0.6-2-0.9-3c0.1-0.1,0.2-0.1,0.4-0.1c0,0.1,0.1,0.2,0.1,0.3c0,0.1,0,0.3,0.2,0.4
		c0.1,0.1,0.1,0.2,0.2,0.3c0.3,0.6,0.6,1.3,0.9,2c0.3,1,0.5,1.9,0.8,2.9c0,0.2,0,0.3,0,0.5C237.5,237,237,237,236.4,237.1z
		 M243.4,250.5C243.5,250.5,243.5,250.5,243.4,250.5C243.5,250.5,243.5,250.5,243.4,250.5C243.5,250.5,243.5,250.5,243.4,250.5z
		 M240.1,250C240.1,250,240.1,250,240.1,250c0.2,0.7,0.3,1.3,0.4,1.8c0.1,0.7,0.1,1.3,0,2c-0.1-0.3-0.2-0.5-0.3-0.8
		c-0.1-0.3-0.2-0.6-0.4-0.9c-0.1-0.2-0.3-1-0.3-0.8c0.1-0.3-0.1-0.6-0.4-0.6C239.5,250.4,239.8,250.2,240.1,250z M238.2,252.9
		c0-0.5,0.1-1.1,0.4-1.5c0,0.5,0.2,1.2,0.3,1.6c0.1,0.4,0.2,0.8,0.3,1.2C238.7,254,238.3,253.7,238.2,252.9z M241.8,249.6
		c0,0.5,0,1-0.1,1.5c-0.2-0.5-0.3-0.9-0.5-1.4c0-0.1-0.1-0.1-0.1-0.1C241.3,249.5,241.5,249.6,241.8,249.6z"/>
	<path class="st13" d="M264.4,217c-0.4-2-1-3.9-1.4-5.9c-0.1-0.6-0.9-0.8-1.3-0.5c0,0-0.1,0-0.1,0.1c-1-0.1-2,0.4-3,0.7
		c-1,0.3-1.9,0.6-2.9,0.9c-1.1,0.1-2.2,0.1-3.3,0.2c-0.7,0-1.2,0.9-0.6,1.4c2,1.7,2.3,5.5,2.8,8c0.4,2.4,0.9,4.7,1.6,7
		c-1-0.5-2.1-0.6-3.2-0.4c-2.4,0.4-5,2.4-3.8,5.1c0.6,1.3,1.9,2.2,3.4,2.6c0.2,0.1,0.4,0.2,0.6,0.1c0.9,0.1,1.7,0,2.5-0.3
		c0,0.1,0.1,0.2,0.1,0.2c0.3,0.4,0.8,0.6,1.2,0.3c0.7-0.6,1.1-1.3,1.2-2.1c0.3-0.3,0.6-0.7,0.7-1.1c0.1-0.6,0-1-0.3-1.4
		c0.1-0.1,0.1-0.3,0-0.5c-0.1-0.2-0.1-0.4-0.2-0.6c-0.1-2.7-1-5.2-1.6-7.8c-0.3-1.2-0.5-2.5-0.7-3.7c2.6-0.2,5.2-0.7,7.8-1.2
		C264.2,218,264.5,217.5,264.4,217z M252.7,233.7c-0.2-0.4-0.3-0.8-0.5-1.2c-0.2-0.4-0.3-0.9-0.5-1.3c0,0,0-0.1-0.1-0.2
		c0.3-0.2,0.5-0.3,0.8-0.4c0,0.1,0,0.1,0,0.2C252.5,231.6,252.8,232.7,252.7,233.7z M256.3,231.9c0.1,0.1,0.1,0.2,0.2,0.2
		c0,0.4,0.1,0.8,0.1,1.1c0,0-0.1,0.1-0.1,0.1C256.4,232.9,256.3,232.4,256.3,231.9z M260.8,213.1c-0.1-0.1-0.1-0.1-0.2-0.1
		c0.1,0,0.1,0,0.2-0.1C260.8,213,260.8,213.1,260.8,213.1z M259.4,214.1c0-0.1-0.1-0.2-0.1-0.3c0.1,0,0.2-0.1,0.4-0.1c0,0,0,0,0,0.1
		c0,0.5,0,0.9-0.1,1.4C259.5,214.7,259.4,214.4,259.4,214.1z M257.4,215.2c0-0.4,0-0.7-0.1-1.1c0.2,0,0.5,0,0.7-0.1
		C257.9,214.5,257.7,215.4,257.4,215.2z M255.7,217.4c-0.1-0.4-0.1-0.7-0.2-1.1c0.1,0.2,0.2,0.4,0.4,0.6c0,0.1,0.1,0.1,0.1,0.1
		C255.9,217.2,255.8,217.3,255.7,217.4z M254.3,230.2c0,0.1,0,0.2,0,0.2c0,0.9,0.2,1.9,0.1,2.8c-0.3-0.9-0.4-1.8-0.7-2.7
		c0,0,0,0,0,0c0,0,0,0,0,0c0-0.1,0-0.1,0-0.2c0,0,0-0.1,0-0.1C253.8,230.2,254.1,230.2,254.3,230.2z M250.8,231.7
		c0.1,0.5,0.2,1.1,0.3,1.6C250.5,232.7,250.5,232.2,250.8,231.7z"/>
	<path class="st13" d="M189.8,238.1c0,0,0.1,0.1,0.1,0.1c0.4,3.4,2.7,6.7,3.6,10c0.8,2.5,1.3,5.3,2.4,7.8c-1.4-0.6-3.1-0.2-4.3,1.1
		c-1.6,1.7-1.1,4.5,0.7,5.9c1.2,0.9,3,1.1,4.4,0.4c0.2,0.1,0.5,0.2,0.7,0.1c0.3-0.2,0.3-0.5,0.2-0.8c0.1-0.1,0.2-0.1,0.2-0.2
		c0.8-1.1,0.8-2.3,0.3-3.3c0.1-0.1,0.2-0.2,0.2-0.4c-0.9-3.7-2.1-7.7-3.5-11.5c0,0,0,0,0.1-0.1c0.3-0.2,0.5-0.5,0.7-0.8
		c0.8-0.9,1.7-1.6,2.5-2.4c1.4-1.3,3-2.5,4.3-4c0.3-0.4,0.3-1.1-0.3-1.2c-2.4-0.6-4.9-0.6-7.4-0.9c-1.3-0.2-2.9-0.4-4.2-0.3
		c-0.1-0.2-0.2-0.4-0.3-0.5c-0.1-0.2-0.4-0.1-0.4,0.1c0,0.2,0,0.4,0,0.5C189.8,237.8,189.8,238,189.8,238.1z M199.5,239.7
		c-0.2,0.2-0.4,0.1-0.6-0.1C199.1,239.7,199.3,239.7,199.5,239.7C199.5,239.7,199.5,239.7,199.5,239.7z M195.9,239.4
		c0.4,0,0.8,0.1,1.2,0.1C197.2,241,196.4,240.3,195.9,239.4z M194.3,245.8c-0.1-0.2-0.2-0.5-0.3-0.7c0.1,0.2,0.3,0.3,0.4,0.5
		c0,0,0,0,0,0C194.4,245.7,194.4,245.7,194.3,245.8z M195.6,244.3C195.6,244.3,195.6,244.3,195.6,244.3
		C195.6,244.3,195.6,244.3,195.6,244.3C195.6,244.3,195.6,244.3,195.6,244.3z M193,239.1C193,239.1,193,239.1,193,239.1
		c0.2,0.7,0.3,1.4,0.6,2.1c0.1,0.4,0.2,0.8,0.3,1.2c-0.7-1.1-1.2-2.2-1.7-3.4C192.5,239,192.8,239.1,193,239.1z M196.7,261.1
		c-0.1-0.1-0.2-0.3-0.2-0.3c-0.3-0.5-0.4-1.2-0.9-1.7c-0.1-0.4-0.2-0.7-0.3-1.1C196.4,258.8,197.3,260,196.7,261.1z M193.7,257.6
		c-0.1-0.1-0.2-0.1-0.3-0.1c0.1-0.1,0.2-0.1,0.3-0.2C193.7,257.4,193.7,257.5,193.7,257.6z M192.2,259.5c0.1,0.6,0.3,1.2,0.6,1.8
		C192.3,260.8,192.2,260.2,192.2,259.5z M196.3,243.7c0.1-0.6,0.2-1.1,0.1-1.6c0.2,0.1,0.4,0.1,0.6,0.1c0.7,0,1.1-0.4,1.3-1
		c0.2,0.1,0.3,0.2,0.5,0.2C198,242.2,197.1,242.9,196.3,243.7z"/>
</g>
</svg>
